<svg width="1440" height="771" viewBox="0 0 1440 771" fill="none" xmlns="http://www.w3.org/2000/svg">
<path d="M111.461 469.923L122.343 465.111L128.607 468.72L129.872 480.561L122.153 480.498L123.292 472.266L121.964 471.506L115.447 476.572L111.461 469.923Z" fill="black"/>
<path d="M129.303 468.213L138.92 475.242L142.716 468.467L134.997 465.364V463.844L142.716 460.678L138.92 453.966L129.303 460.995V468.213Z" fill="black"/>
<path d="M128.607 460.425L129.872 448.584L122.153 448.711L123.292 456.942L121.964 457.702L115.384 452.637L111.461 459.222L122.343 464.034L128.607 460.425Z" fill="black"/>
<path d="M168.468 463.153V474.247H172.622V460.109H166.572V463.153H168.468Z" fill="black"/>
<path d="M168.338 458.123C168.719 458.518 169.299 458.716 170.077 458.716C170.857 458.716 171.427 458.518 171.791 458.123C172.172 457.71 172.362 457.194 172.362 456.575C172.362 455.939 172.172 455.423 171.791 455.027C171.427 454.614 170.857 454.408 170.077 454.408C169.299 454.408 168.719 454.614 168.338 455.027C167.975 455.423 167.793 455.939 167.793 456.575C167.793 457.194 167.975 457.71 168.338 458.123Z" fill="black"/>
<path d="M154.006 473.937C155.183 474.47 156.628 474.737 158.341 474.737C159.951 474.737 161.336 474.488 162.496 473.989C163.656 473.49 164.547 472.793 165.17 471.899C165.811 470.987 166.131 469.93 166.131 468.726C166.131 467.556 165.828 466.568 165.222 465.759C164.634 464.934 163.812 464.289 162.755 463.824C161.7 463.343 160.479 463.042 159.094 462.921L157.641 462.792C156.775 462.723 156.152 462.491 155.771 462.096C155.39 461.7 155.2 461.236 155.2 460.703C155.2 460.29 155.304 459.912 155.511 459.568C155.719 459.206 156.031 458.923 156.446 458.716C156.879 458.51 157.407 458.407 158.03 458.407C158.687 458.407 159.233 458.527 159.666 458.768C159.761 458.819 159.851 458.873 159.936 458.931L159.957 458.945C159.989 458.967 160.02 458.99 160.05 459.013C160.313 459.212 160.523 459.449 160.678 459.722C160.903 460.101 161.016 460.522 161.016 460.987H165.17C165.17 459.748 164.884 458.673 164.314 457.762C163.742 456.833 162.92 456.119 161.847 455.62C160.791 455.104 159.519 454.846 158.03 454.846C156.61 454.846 155.382 455.087 154.343 455.569C153.305 456.033 152.491 456.704 151.903 457.581C151.331 458.458 151.045 459.499 151.045 460.703C151.045 462.371 151.608 463.712 152.733 464.727C153.858 465.742 155.364 466.327 157.251 466.482L158.679 466.611C159.839 466.714 160.678 466.946 161.198 467.307C161.717 467.651 161.977 468.124 161.977 468.726C161.977 469.003 161.931 469.262 161.84 469.504C161.772 469.684 161.679 469.855 161.561 470.016C161.284 470.377 160.877 470.661 160.341 470.867C159.804 471.074 159.138 471.177 158.341 471.177C157.459 471.177 156.74 471.056 156.187 470.816C155.633 470.557 155.217 470.222 154.94 469.81C154.68 469.397 154.551 468.95 154.551 468.468H150.422C150.422 469.689 150.725 470.773 151.331 471.719C151.937 472.647 152.828 473.387 154.006 473.937Z" fill="black"/>
<path d="M181.891 474.427C180.454 474.427 179.295 474.255 178.412 473.911C177.529 473.55 176.88 472.957 176.464 472.132C176.066 471.289 175.867 470.153 175.867 468.726V463.128H173.712V460.109H175.867V456.291H179.736V460.109H183.89V463.128H179.736V468.881C179.736 469.552 179.909 470.067 180.255 470.428C180.618 470.773 181.129 470.944 181.787 470.944H183.89V474.427H181.891Z" fill="black"/>
<path fill-rule="evenodd" clip-rule="evenodd" d="M188.892 474.118C189.827 474.531 190.9 474.737 192.112 474.737C193.306 474.737 194.362 474.531 195.279 474.118C196.197 473.705 196.959 473.129 197.564 472.389C198.17 471.65 198.577 470.807 198.784 469.861H194.968C194.795 470.291 194.466 470.652 193.981 470.944C193.497 471.237 192.873 471.383 192.112 471.383C191.64 471.383 191.218 471.328 190.847 471.217C190.564 471.132 190.311 471.016 190.087 470.867C189.567 470.523 189.186 470.041 188.944 469.423C188.877 469.246 188.819 469.062 188.771 468.87C188.721 468.675 188.681 468.472 188.651 468.262H199.044V466.868C199.044 465.579 198.767 464.392 198.213 463.308C197.659 462.207 196.854 461.322 195.799 460.651C194.76 459.963 193.479 459.619 191.956 459.619C190.796 459.619 189.757 459.826 188.84 460.238C187.94 460.634 187.187 461.176 186.581 461.864C185.976 462.551 185.508 463.334 185.179 464.211C184.867 465.071 184.712 465.974 184.712 466.92V467.436C184.712 468.348 184.867 469.242 185.179 470.119C185.508 470.979 185.976 471.761 186.581 472.467C187.204 473.155 187.974 473.705 188.892 474.118ZM188.723 465.711C188.735 465.656 188.747 465.602 188.76 465.549C188.796 465.403 188.838 465.264 188.885 465.13C188.911 465.054 188.94 464.98 188.97 464.908C189.23 464.271 189.61 463.79 190.112 463.463C190.3 463.341 190.503 463.242 190.722 463.165C191.089 463.037 191.501 462.973 191.956 462.973C192.666 462.973 193.254 463.136 193.721 463.463C194.206 463.773 194.57 464.228 194.812 464.83C194.832 464.879 194.85 464.928 194.868 464.978C194.897 465.058 194.923 465.14 194.948 465.224C194.985 465.349 195.017 465.478 195.045 465.612C195.066 465.71 195.083 465.811 195.099 465.914H188.683C188.695 465.845 188.709 465.777 188.723 465.711Z" fill="black"/>
<path d="M200.758 474.247V460.109H204.056V463.67C204.101 463.458 204.152 463.255 204.209 463.06C204.258 462.896 204.31 462.738 204.368 462.586C204.731 461.623 205.276 460.901 206.003 460.419C206.73 459.92 207.621 459.671 208.678 459.671H208.859C209.933 459.671 210.824 459.92 211.534 460.419C212.261 460.901 212.806 461.623 213.169 462.586L213.198 462.659L213.223 462.725C213.239 462.678 213.256 462.632 213.273 462.586C213.654 461.623 214.208 460.901 214.935 460.419C215.662 459.92 216.554 459.671 217.61 459.671H217.792C218.864 459.671 219.764 459.92 220.491 460.419C221.236 460.901 221.799 461.623 222.179 462.586C222.56 463.549 222.751 464.753 222.751 466.198V474.247H218.596V465.966C218.596 465.192 218.389 464.564 217.973 464.082C217.575 463.601 217.004 463.36 216.26 463.36C215.515 463.36 214.927 463.609 214.494 464.108C214.061 464.59 213.845 465.235 213.845 466.043V474.247H209.664V465.966C209.664 465.192 209.457 464.564 209.041 464.082C208.643 463.601 208.08 463.36 207.354 463.36C206.592 463.36 205.995 463.609 205.562 464.108C205.129 464.59 204.913 465.235 204.913 466.043V474.247H200.758Z" fill="black"/>
<path fill-rule="evenodd" clip-rule="evenodd" d="M233.848 471.523V474.247H237.145V465.579C237.145 464.271 236.885 463.205 236.366 462.38C235.847 461.537 235.085 460.909 234.081 460.496C233.095 460.084 231.874 459.877 230.42 459.877C230.105 459.877 229.776 459.881 229.433 459.887C229.231 459.892 229.023 459.897 228.81 459.903C228.239 459.92 227.685 459.946 227.149 459.98L226.739 460.008C226.528 460.022 226.331 460.037 226.145 460.051C226.005 460.062 225.872 460.073 225.747 460.084V463.566C226.283 463.532 226.88 463.498 227.538 463.463C227.722 463.454 227.905 463.445 228.086 463.436C228.347 463.424 228.605 463.414 228.86 463.405C229.062 463.398 229.262 463.391 229.46 463.386C230.083 463.368 230.585 463.36 230.966 463.36C231.727 463.36 232.281 463.541 232.628 463.902C232.974 464.263 233.146 464.805 233.146 465.527V465.579H230.576C229.313 465.579 228.196 465.742 227.227 466.069C226.257 466.378 225.504 466.869 224.968 467.539C224.431 468.193 224.163 469.036 224.163 470.067C224.163 471.014 224.379 471.83 224.812 472.519C225.245 473.189 225.842 473.705 226.603 474.066C227.383 474.427 228.283 474.608 229.304 474.608C230.291 474.608 231.121 474.427 231.797 474.066C232.489 473.705 233.026 473.189 233.406 472.519C233.473 472.405 233.536 472.288 233.594 472.166C233.677 471.994 233.75 471.813 233.815 471.623L233.848 471.523ZM233.146 469.01V467.875H230.55C229.823 467.875 229.261 468.055 228.863 468.416C228.482 468.76 228.291 469.233 228.291 469.835C228.291 470.119 228.339 470.376 228.433 470.608C228.529 470.841 228.672 471.048 228.863 471.229C229.261 471.573 229.823 471.744 230.55 471.744C230.689 471.744 230.822 471.738 230.951 471.724C231.057 471.713 231.159 471.697 231.259 471.677C231.449 471.639 231.629 471.584 231.797 471.512C232.178 471.34 232.489 471.057 232.731 470.661C232.974 470.265 233.112 469.715 233.146 469.01Z" fill="black"/>
<path d="M239.631 474.247V460.109H242.929V464.776C243.087 463.444 243.485 462.37 244.123 461.554C244.989 460.471 246.235 459.929 247.862 459.929H248.407V463.489H247.369C246.227 463.489 245.344 463.799 244.72 464.418C244.097 465.02 243.785 465.897 243.785 467.049V474.247H239.631Z" fill="black"/>
<path d="M253.675 467.642H255.052L259.543 474.247H264.217L258.521 466.136L263.204 460.109H258.843L253.675 466.831V455.414H249.521V474.247H253.675V467.642Z" fill="black"/>
<path d="M681.631 477.799L683.506 477.328V457.267L681.631 456.797V456.327H690.067C693.232 456.327 695.555 456.839 697.034 457.863C698.533 458.866 699.283 460.182 699.283 461.812C699.283 462.941 698.96 463.85 698.315 464.539C697.669 465.229 696.846 465.741 695.846 466.076C694.784 466.451 693.639 466.65 692.41 466.671V466.828C693.93 466.89 695.253 467.12 696.378 467.517C697.523 467.894 698.471 468.479 699.221 469.273C699.991 470.067 700.377 471.08 700.377 472.313C700.377 474.173 699.616 475.636 698.096 476.702C696.575 477.746 694.107 478.269 690.691 478.269H681.631V477.799ZM690.067 466.357C690.754 466.357 691.389 466.17 691.972 465.793C692.576 465.396 693.055 464.853 693.41 464.163C693.785 463.453 693.972 462.669 693.972 461.812C693.972 460.893 693.785 460.078 693.41 459.367C693.055 458.657 692.576 458.103 691.972 457.706C691.389 457.309 690.754 457.111 690.067 457.111H688.661V466.357H690.067ZM690.691 477.485C691.983 477.485 693.035 477.026 693.847 476.106C694.659 475.187 695.065 473.922 695.065 472.313C695.065 470.704 694.659 469.44 693.847 468.52C693.035 467.601 691.983 467.141 690.691 467.141H688.661V477.485H690.691Z" fill="black"/>
<path d="M700.991 477.799L702.866 477.328V457.267L700.991 456.797V456.327H705.053C706.928 456.327 707.865 457.267 707.865 459.148V477.328L709.739 477.799V478.269H700.991V477.799Z" fill="black"/>
<path d="M718.326 478.739C715.743 478.739 713.713 478.008 712.234 476.545C710.776 475.061 710.047 473.024 710.047 470.433C710.047 467.841 710.776 465.814 712.234 464.352C713.713 462.868 715.743 462.126 718.326 462.126C720.909 462.126 722.929 462.868 724.387 464.352C725.866 465.814 726.605 467.841 726.605 470.433C726.605 473.024 725.866 475.061 724.387 476.545C722.929 478.008 720.909 478.739 718.326 478.739ZM718.326 478.112C719.159 478.112 719.857 477.527 720.419 476.357C721.003 475.187 721.294 473.212 721.294 470.433C721.294 467.653 721.003 465.678 720.419 464.508C719.857 463.338 719.159 462.753 718.326 462.753C717.493 462.753 716.785 463.338 716.202 464.508C715.639 465.678 715.358 467.653 715.358 470.433C715.358 473.212 715.639 475.187 716.202 476.357C716.785 477.527 717.493 478.112 718.326 478.112Z" fill="black"/>
<path d="M734.895 478.739C733.604 478.739 732.448 478.457 731.428 477.893C730.928 477.621 730.522 477.329 730.209 477.015C729.876 477.475 729.511 477.83 729.116 478.081C728.928 478.206 728.72 478.321 728.491 478.426H727.71V473.097H728.959C729.23 473.975 729.626 474.79 730.147 475.542C731.251 477.151 732.625 477.955 734.271 477.955C735.145 477.955 735.801 477.746 736.239 477.328C736.697 476.89 736.926 476.263 736.926 475.448C736.926 474.758 736.614 474.183 735.989 473.724C735.385 473.243 734.427 472.658 733.115 471.968C731.99 471.404 731.073 470.903 730.365 470.464C729.678 470.004 729.084 469.44 728.584 468.771C728.105 468.081 727.866 467.277 727.866 466.357C727.866 465.104 728.397 464.09 729.459 463.317C730.542 462.523 732.198 462.126 734.427 462.126C735.531 462.126 736.551 462.418 737.488 463.003C737.947 463.275 738.342 463.557 738.676 463.85C738.946 463.474 739.311 463.119 739.769 462.784C740.123 462.575 740.332 462.46 740.394 462.439H741.175V467.768H739.925C739.613 466.869 739.228 466.065 738.769 465.354C737.728 463.724 736.489 462.909 735.051 462.909C734.489 462.909 734.01 463.119 733.614 463.537C733.219 463.954 733.021 464.477 733.021 465.104C733.021 465.898 733.354 466.567 734.021 467.11C734.687 467.632 735.697 468.238 737.051 468.928C738.155 469.492 739.03 469.994 739.675 470.433C740.342 470.851 740.904 471.373 741.363 472C741.842 472.627 742.081 473.358 742.081 474.194C742.081 477.224 739.686 478.739 734.895 478.739Z" fill="black"/>
<path d="M750.205 478.739C748.914 478.739 747.758 478.457 746.738 477.893C746.237 477.621 745.832 477.329 745.519 477.015C745.186 477.475 744.821 477.83 744.425 478.081C744.238 478.206 744.03 478.321 743.801 478.426H743.02V473.097H744.269C744.54 473.975 744.936 474.79 745.457 475.542C746.56 477.151 747.935 477.955 749.58 477.955C750.455 477.955 751.111 477.746 751.549 477.328C752.007 476.89 752.236 476.263 752.236 475.448C752.236 474.758 751.924 474.183 751.299 473.724C750.695 473.243 749.737 472.658 748.425 471.968C747.3 471.404 746.383 470.903 745.675 470.464C744.988 470.004 744.394 469.44 743.894 468.771C743.415 468.081 743.176 467.277 743.176 466.357C743.176 465.104 743.707 464.09 744.769 463.317C745.852 462.523 747.508 462.126 749.737 462.126C750.841 462.126 751.861 462.418 752.798 463.003C753.257 463.275 753.652 463.557 753.985 463.85C754.256 463.474 754.621 463.119 755.079 462.784C755.433 462.575 755.641 462.46 755.704 462.439H756.485V467.768H755.235C754.923 466.869 754.538 466.065 754.079 465.354C753.038 463.724 751.799 462.909 750.361 462.909C749.799 462.909 749.32 463.119 748.924 463.537C748.529 463.954 748.331 464.477 748.331 465.104C748.331 465.898 748.664 466.567 749.331 467.11C749.997 467.632 751.007 468.238 752.361 468.928C753.465 469.492 754.34 469.994 754.985 470.433C755.652 470.851 756.214 471.373 756.673 472C757.152 472.627 757.391 473.358 757.391 474.194C757.391 477.224 754.996 478.739 750.205 478.739Z" fill="black"/>
<path d="M766.452 478.739C763.87 478.739 761.839 478.008 760.36 476.545C758.902 475.061 758.173 473.024 758.173 470.433C758.173 467.841 758.902 465.814 760.36 464.352C761.839 462.868 763.87 462.126 766.452 462.126C769.035 462.126 771.055 462.868 772.513 464.352C773.992 465.814 774.732 467.841 774.732 470.433C774.732 473.024 773.992 475.061 772.513 476.545C771.055 478.008 769.035 478.739 766.452 478.739ZM766.452 478.112C767.285 478.112 767.983 477.527 768.546 476.357C769.129 475.187 769.42 473.212 769.42 470.433C769.42 467.653 769.129 465.678 768.546 464.508C767.983 463.338 767.285 462.753 766.452 462.753C765.619 462.753 764.911 463.338 764.328 464.508C763.766 465.678 763.485 467.653 763.485 470.433C763.485 473.212 763.766 475.187 764.328 476.357C764.911 477.527 765.619 478.112 766.452 478.112Z" fill="black"/>
<path d="M775.68 477.799L777.554 477.328V463.537L775.68 463.066V462.596H778.492C779.72 462.596 780.689 462.993 781.397 463.787C781.668 464.101 781.897 464.487 782.085 464.947C782.397 464.362 782.73 463.892 783.084 463.537C784.021 462.596 785.094 462.126 786.302 462.126C787.51 462.126 788.573 462.398 789.489 462.941C790.405 463.463 791.113 464.184 791.613 465.104C791.926 464.498 792.259 464.007 792.613 463.63C793.571 462.628 794.644 462.126 795.831 462.126C796.935 462.126 797.924 462.356 798.799 462.815C799.695 463.275 800.382 463.902 800.861 464.696C801.361 465.49 801.611 466.357 801.611 467.298V477.328L803.485 477.799V478.269H799.424C797.549 478.269 796.612 477.328 796.612 475.448V467.298C796.612 465.94 796.404 464.926 795.987 464.257C795.571 463.568 795.102 463.223 794.582 463.223C793.977 463.223 793.363 463.641 792.738 464.477C792.488 464.874 792.269 465.292 792.082 465.731V477.328L793.956 477.799V478.269H785.209V477.799L787.083 477.328V467.298C787.083 465.94 786.875 464.926 786.458 464.257C786.042 463.568 785.573 463.223 785.052 463.223C784.448 463.223 783.834 463.641 783.209 464.477C782.959 464.874 782.741 465.292 782.553 465.731V477.328L784.428 477.799V478.269H775.68V477.799Z" fill="black"/>
<path fill-rule="evenodd" clip-rule="evenodd" d="M656.201 484.254C656 484.294 655.791 484.307 655.579 484.291C649.035 483.793 642.84 480.166 639.311 474.033C635.782 467.9 635.749 460.704 638.591 454.768C639.004 453.907 639.898 453.389 640.848 453.461C643.287 453.647 645.677 454.267 647.899 455.289C649.575 452.009 652.056 449.212 655.079 447.157C655.868 446.621 656.9 446.621 657.689 447.157C660.671 449.184 663.125 451.934 664.8 455.156C666.937 454.213 669.224 453.638 671.555 453.461C672.505 453.389 673.399 453.907 673.812 454.768C676.654 460.704 676.621 467.9 673.092 474.033C669.562 480.166 663.368 483.793 656.824 484.291C656.612 484.307 656.403 484.294 656.201 484.254ZM660.996 480.536C664.919 479.198 668.389 476.481 670.621 472.602C673.592 467.438 673.689 461.4 671.399 456.347C669.518 456.53 667.677 457.013 665.95 457.775C666.792 460.1 667.252 462.61 667.252 465.227C667.252 471.193 664.864 476.599 660.996 480.536ZM662.274 456.487C660.875 453.791 658.847 451.475 656.384 449.732C653.868 451.512 651.806 453.89 650.404 456.66C652.636 458.092 654.618 459.975 656.201 462.27C657.85 459.881 659.931 457.938 662.274 456.487ZM657.818 465.046C659.251 462.593 661.182 460.61 663.408 459.154C664.051 461.061 664.399 463.103 664.399 465.227C664.399 470.131 662.544 474.6 659.494 477.967C660.319 473.714 659.82 469.185 657.818 465.046ZM654.585 465.046C653.216 462.703 651.394 460.79 649.293 459.354C648.693 461.203 648.369 463.177 648.369 465.227C648.369 469.879 650.038 474.141 652.814 477.44C652.128 473.342 652.666 469.014 654.585 465.046ZM656.201 479.366C657.272 475.949 657.316 472.221 656.201 468.688C655.086 472.221 655.131 475.949 656.201 479.366ZM641.782 472.602C644.116 476.657 647.802 479.442 651.944 480.71C647.974 476.759 645.516 471.281 645.516 465.227C645.516 462.663 645.957 460.202 646.767 457.917C644.95 457.073 642.999 456.541 641.004 456.347C638.714 461.4 638.81 467.438 641.782 472.602Z" fill="black"/>
<path d="M1191.88 443.842L1170.68 469.315H1189.76L1187.64 486.297L1208.84 460.824H1189.76L1191.88 443.842Z" fill="black"/>
<path d="M1238.85 461.598V469.456H1227.53V480.218H1218.64V448.312H1241.23V456.169H1227.53V461.598H1238.85Z" fill="black"/>
<path d="M1253.63 448.312V480.218H1245.45V448.312H1253.63Z" fill="black"/>
<path d="M1267.13 455.217C1268.4 455.217 1269.63 455.502 1270.84 456.074C1272.07 456.613 1273.09 457.312 1273.88 458.169V455.931H1282.06V480.218H1273.88V476.17C1273.28 477.504 1272.36 478.631 1271.12 479.551C1269.89 480.472 1268.4 480.933 1266.65 480.933C1264.85 480.933 1263.15 480.472 1261.56 479.551C1259.98 478.631 1258.68 477.218 1257.66 475.313C1256.68 473.377 1256.19 470.948 1256.19 468.027C1256.19 465.297 1256.68 462.979 1257.66 461.074C1258.68 459.169 1260.01 457.725 1261.66 456.74C1263.34 455.724 1265.16 455.217 1267.13 455.217ZM1268.84 463.217C1267.67 463.217 1266.68 463.693 1265.89 464.646C1265.13 465.598 1264.75 466.725 1264.75 468.027C1264.75 469.329 1265.15 470.424 1265.94 471.313C1266.73 472.202 1267.78 472.646 1269.08 472.646C1269.78 472.646 1270.49 472.472 1271.22 472.123C1271.95 471.741 1272.57 471.186 1273.07 470.456C1273.61 469.694 1273.88 468.725 1273.88 467.551V465.217C1273.18 464.646 1272.39 464.17 1271.5 463.789C1270.65 463.408 1269.76 463.217 1268.84 463.217Z" fill="black"/>
<path d="M1294.75 455.217C1296.34 455.217 1297.79 455.455 1299.13 455.931C1300.49 456.375 1301.58 456.994 1302.41 457.788V464.217C1301.58 463.709 1300.65 463.233 1299.6 462.788C1298.56 462.312 1297.43 462.074 1296.22 462.074C1295.46 462.074 1294.78 462.233 1294.18 462.55C1293.61 462.836 1293.32 463.296 1293.32 463.931C1293.32 464.376 1293.5 464.709 1293.85 464.931C1294.2 465.154 1294.88 465.392 1295.89 465.646L1297.37 466.027C1301.58 467.106 1303.69 469.376 1303.69 472.837C1303.69 474.424 1303.22 475.837 1302.26 477.075C1301.35 478.282 1300.12 479.234 1298.6 479.933C1297.11 480.599 1295.5 480.933 1293.75 480.933C1291.94 480.933 1290.26 480.678 1288.71 480.171C1287.16 479.631 1285.83 478.98 1284.72 478.218V471.837C1285.86 472.535 1287.14 473.122 1288.57 473.599C1290.03 474.075 1291.33 474.313 1292.47 474.313C1293.39 474.313 1294.05 474.202 1294.47 473.98C1294.91 473.757 1295.13 473.361 1295.13 472.789C1295.13 472.345 1294.88 472.011 1294.37 471.789C1293.86 471.535 1293.13 471.249 1292.18 470.932L1289.76 470.17C1287.98 469.63 1286.68 468.789 1285.86 467.646C1285.03 466.471 1284.62 465.043 1284.62 463.36C1284.62 461.677 1285.06 460.233 1285.95 459.026C1286.84 457.82 1288.04 456.883 1289.57 456.217C1291.12 455.55 1292.85 455.217 1294.75 455.217Z" fill="black"/>
<path d="M1320.57 455.217C1323.04 455.217 1325.05 456.058 1326.61 457.74C1328.19 459.423 1328.98 461.915 1328.98 465.217V480.218H1320.8L1320.76 466.503C1320.76 465.297 1320.42 464.455 1319.76 463.979C1319.09 463.471 1318.35 463.217 1317.52 463.217C1316.63 463.217 1315.89 463.455 1315.29 463.931C1314.68 464.376 1314.16 464.916 1313.72 465.551V480.218H1305.54V448.311H1313.72V459.074C1314.48 458.026 1315.4 457.121 1316.48 456.359C1317.58 455.598 1318.95 455.217 1320.57 455.217Z" fill="black"/>
<path d="M1328.57 448.497V449.51H1327.35V452.593H1326.2V449.51H1324.98V448.497H1328.57Z" fill="black"/>
<path d="M1333.32 448.436V452.612H1332.16V450.585L1331.32 451.537H1330.97L1330.12 450.585V452.612H1328.97V448.436H1329.37L1331.14 450.217L1332.91 448.436H1333.32Z" fill="black"/>
<path d="M463.2 475.286V451.529H467.526V475.286H463.2Z" fill="black"/>
<path d="M426.582 452.186L435.729 475.285H439.295L448.542 452.186H443.753L437.566 468.404L431.436 452.186H426.582Z" fill="black"/>
<path fill-rule="evenodd" clip-rule="evenodd" d="M449.187 474.53C450.486 475.253 451.94 475.614 453.547 475.614C455.154 475.614 456.596 475.253 457.873 474.53C459.172 473.785 460.195 472.788 460.944 471.54C461.692 470.269 462.067 468.856 462.067 467.301C462.067 465.746 461.692 464.355 460.944 463.128C460.195 461.879 459.172 460.894 457.873 460.171C456.596 459.426 455.143 459.053 453.514 459.053C451.929 459.053 450.486 459.426 449.187 460.171C447.889 460.894 446.865 461.879 446.116 463.128C445.368 464.355 444.994 465.746 444.994 467.301C444.994 468.856 445.368 470.269 446.116 471.54C446.887 472.788 447.911 473.785 449.187 474.53ZM455.66 471.08C455.044 471.43 454.328 471.606 453.514 471.606C452.721 471.606 452.017 471.43 451.4 471.08C450.784 470.707 450.299 470.203 449.947 469.568C449.595 468.911 449.419 468.166 449.419 467.334C449.419 466.501 449.595 465.768 449.947 465.132C450.299 464.497 450.784 464.004 451.4 463.654C452.017 463.281 452.721 463.095 453.514 463.095C454.328 463.095 455.044 463.281 455.66 463.654C456.276 464.004 456.761 464.497 457.113 465.132C457.465 465.768 457.641 466.501 457.641 467.334C457.641 468.166 457.465 468.911 457.113 469.568C456.783 470.203 456.298 470.707 455.66 471.08Z" fill="black"/>
<path d="M472.746 474.727C473.847 475.318 475.102 475.614 476.511 475.614C477.92 475.614 479.164 475.329 480.242 474.76C481.343 474.169 482.191 473.347 482.785 472.295C483.401 471.244 483.709 470.017 483.709 468.615V459.415H479.383V468.517C479.383 469.503 479.131 470.269 478.624 470.817C478.118 471.365 477.413 471.639 476.511 471.639C475.916 471.639 475.399 471.518 474.959 471.277C474.518 471.036 474.188 470.685 473.968 470.225C473.748 469.743 473.638 469.174 473.638 468.517V459.415H469.279V468.615C469.279 469.996 469.587 471.211 470.203 472.263C470.82 473.314 471.667 474.135 472.746 474.727Z" fill="black"/>
<path d="M485.503 475.286V459.415H489.829V460.792C490.216 460.416 490.656 460.099 491.15 459.842C492.075 459.338 493.121 459.086 494.287 459.086C495.388 459.086 496.39 459.338 497.292 459.842C498.049 460.246 498.674 460.796 499.167 461.492C499.701 460.815 500.353 460.276 501.123 459.875C502.092 459.349 503.17 459.086 504.359 459.086C505.548 459.086 506.616 459.338 507.562 459.842C508.509 460.324 509.257 461.025 509.808 461.945C510.358 462.865 510.633 463.96 510.633 465.231V475.286H506.308V465.921C506.308 465.001 506.01 464.289 505.416 463.785C504.843 463.259 504.128 462.997 503.269 462.997C502.719 462.997 502.202 463.117 501.717 463.358C501.255 463.577 500.892 463.906 500.627 464.344C500.364 464.782 500.231 465.308 500.231 465.921V475.286H495.905V465.921C495.905 465.001 495.608 464.289 495.014 463.785C494.442 463.259 493.726 462.997 492.867 462.997C492.295 462.997 491.777 463.117 491.315 463.358C490.853 463.577 490.489 463.906 490.226 464.344C489.961 464.782 489.829 465.308 489.829 465.921V475.286H485.503Z" fill="black"/>
<path fill-rule="evenodd" clip-rule="evenodd" d="M515.659 474.562C516.958 475.264 518.444 475.614 520.117 475.614C521.416 475.614 522.616 475.384 523.716 474.924C524.839 474.464 525.786 473.785 526.556 472.887L524.014 470.357C523.529 470.904 522.957 471.321 522.296 471.606C521.636 471.868 520.899 471.999 520.084 471.999C519.181 471.999 518.389 471.814 517.706 471.441C517.024 471.047 516.495 470.499 516.121 469.798C515.98 469.509 515.868 469.201 515.784 468.874L527.448 468.845C527.536 468.473 527.591 468.144 527.613 467.86C527.657 467.553 527.679 467.257 527.679 466.972C527.679 465.461 527.338 464.114 526.655 462.931C525.995 461.726 525.07 460.784 523.882 460.105C522.715 459.404 521.361 459.053 519.82 459.053C518.256 459.053 516.837 459.426 515.56 460.171C514.283 460.894 513.27 461.879 512.522 463.128C511.795 464.355 511.432 465.757 511.432 467.334C511.432 468.933 511.806 470.357 512.555 471.606C513.325 472.854 514.36 473.84 515.659 474.562ZM515.787 465.653C515.864 465.362 515.965 465.09 516.088 464.837C516.44 464.136 516.936 463.599 517.574 463.227C518.212 462.832 518.961 462.635 519.82 462.635C520.634 462.635 521.317 462.81 521.867 463.161C522.439 463.489 522.869 463.971 523.155 464.607C523.303 464.912 523.421 465.254 523.508 465.631L515.787 465.653Z" fill="black"/>
<path fill-rule="evenodd" clip-rule="evenodd" d="M399.995 484.829C411.092 484.829 420.088 475.877 420.088 464.835C420.088 453.793 411.092 444.842 399.995 444.842C388.898 444.842 379.902 453.793 379.902 464.835C379.902 475.877 388.898 484.829 399.995 484.829ZM408.317 452.598C408.555 452.799 408.692 453.094 408.692 453.404L408.692 457.421L408.692 457.686L408.692 457.717V471.163C408.692 473.498 406.789 475.391 404.443 475.391C402.096 475.391 400.193 473.498 400.193 471.163C400.193 468.828 402.096 466.935 404.443 466.935C405.217 466.935 405.942 467.141 406.567 467.501V458.933L395.944 460.695V473.277C395.944 475.612 394.041 477.506 391.694 477.506C389.348 477.506 387.445 475.612 387.445 473.277C387.445 470.942 389.348 469.049 391.694 469.049C392.468 469.049 393.194 469.255 393.819 469.615L393.82 459.8L393.819 459.535L393.82 459.504V455.519C393.82 455.002 394.195 454.561 394.707 454.476L407.455 452.362C407.763 452.311 408.078 452.397 408.317 452.598Z" fill="black"/>
<path fill-rule="evenodd" clip-rule="evenodd" d="M915.454 457.066C918.012 453.641 922.108 451.423 926.724 451.423C931.367 451.423 935.484 453.668 938.038 457.126C937.93 457.238 937.83 457.353 937.741 457.468C937.273 458.071 936.921 458.848 936.639 459.637C936.071 461.224 935.638 463.297 935.236 465.237L935.201 465.412C934.801 467.349 934.429 469.151 933.979 470.489C933.777 471.089 933.585 471.514 933.415 471.786C933.238 471.512 933.037 471.082 932.824 470.472C932.342 469.097 931.938 467.225 931.509 465.227L931.495 465.161V465.161C931.083 463.242 930.646 461.206 930.1 459.647C929.827 458.864 929.491 458.094 929.051 457.497C928.62 456.91 927.902 456.249 926.851 456.249C925.808 456.249 925.087 456.903 924.649 457.483C924.201 458.077 923.852 458.843 923.564 459.626C922.985 461.204 922.511 463.268 922.07 465.211L922.024 465.412C921.588 467.337 921.18 469.137 920.716 470.477C920.539 470.989 920.373 471.378 920.222 471.656C920.074 471.38 919.911 470.993 919.739 470.485C919.295 469.174 918.905 467.424 918.487 465.545L918.414 465.216C917.981 463.272 917.511 461.204 916.923 459.622C916.631 458.835 916.274 458.065 915.812 457.469C915.707 457.334 915.588 457.197 915.454 457.066ZM913.906 459.695C914.028 459.935 914.157 460.231 914.29 460.59C914.799 461.96 915.23 463.829 915.674 465.821L915.76 466.209C916.164 468.027 916.585 469.918 917.08 471.378C917.343 472.155 917.661 472.916 918.07 473.508C918.457 474.067 919.151 474.789 920.217 474.789C921.281 474.789 921.977 474.07 922.366 473.514C922.779 472.924 923.102 472.163 923.37 471.386C923.885 469.897 924.324 467.962 924.743 466.11V466.11L924.808 465.827C925.26 463.833 925.695 461.96 926.2 460.586C926.434 459.949 926.653 459.505 926.844 459.23C927.024 459.502 927.231 459.939 927.45 460.565C927.931 461.941 928.335 463.813 928.764 465.811L928.778 465.876C929.19 467.796 929.628 469.832 930.173 471.391C930.447 472.174 930.783 472.943 931.222 473.541C931.654 474.127 932.372 474.789 933.422 474.789C934.477 474.789 935.193 474.121 935.619 473.53C936.052 472.929 936.377 472.157 936.64 471.375C937.146 469.873 937.548 467.924 937.93 466.07V466.069L937.986 465.8C938.398 463.804 938.794 461.94 939.283 460.575C939.389 460.278 939.493 460.024 939.593 459.811C940.342 461.521 940.757 463.408 940.757 465.392C940.757 473.107 934.475 479.361 926.724 479.361C918.973 479.361 912.69 473.107 912.69 465.392C912.69 463.363 913.125 461.435 913.906 459.695ZM926.724 448.629C917.423 448.629 909.884 456.134 909.884 465.392C909.884 474.65 917.423 482.154 926.724 482.154C936.025 482.154 943.564 474.65 943.564 465.392C943.564 456.134 936.025 448.629 926.724 448.629ZM927.045 458.996C927.045 458.996 927.041 458.999 927.035 459.002C927.041 458.997 927.045 458.995 927.045 458.996ZM926.657 458.998C926.65 458.994 926.647 458.991 926.647 458.991C926.647 458.99 926.65 458.992 926.657 458.998ZM933.208 472.051C933.208 472.051 933.211 472.048 933.217 472.045C933.211 472.05 933.208 472.052 933.208 472.051ZM933.616 472.04C933.623 472.044 933.626 472.047 933.626 472.047C933.626 472.048 933.623 472.045 933.616 472.04ZM919.93 472.077C919.93 472.076 919.934 472.072 919.942 472.067C919.934 472.074 919.93 472.077 919.93 472.077ZM920.498 472.069C920.506 472.075 920.51 472.079 920.51 472.079C920.51 472.08 920.506 472.077 920.498 472.069Z" fill="black"/>
<path d="M952.863 475.316L948.779 461.411H952.356L954.778 471.419L957.594 461.411H961.593L964.41 471.419L966.86 461.411H970.437L966.325 475.316H962.58L959.594 464.915L956.609 475.316H952.863Z" fill="black"/>
<path d="M975.685 475.652C974.484 475.652 973.498 475.465 972.728 475.091C971.959 474.699 971.386 474.185 971.011 473.549C970.635 472.914 970.447 472.213 970.447 471.447C970.447 470.158 970.954 469.111 971.968 468.307C972.982 467.504 974.503 467.102 976.531 467.102H980.079V466.765C980.079 465.812 979.807 465.111 979.263 464.663C978.718 464.214 978.042 463.99 977.235 463.99C976.502 463.99 975.864 464.168 975.32 464.523C974.775 464.859 974.437 465.364 974.306 466.037H970.785C970.879 465.027 971.217 464.149 971.799 463.401C972.4 462.654 973.17 462.084 974.108 461.691C975.047 461.28 976.099 461.075 977.263 461.075C979.253 461.075 980.821 461.57 981.966 462.56C983.111 463.551 983.684 464.953 983.684 466.765V475.316H980.614L980.276 473.073C979.863 473.821 979.281 474.437 978.53 474.923C977.798 475.409 976.85 475.652 975.685 475.652ZM976.502 472.849C977.535 472.849 978.333 472.512 978.896 471.839C979.478 471.167 979.844 470.335 979.995 469.345H976.925C975.967 469.345 975.282 469.522 974.869 469.877C974.456 470.214 974.249 470.634 974.249 471.139C974.249 471.681 974.456 472.101 974.869 472.4C975.282 472.699 975.826 472.849 976.502 472.849Z" fill="black"/>
<path d="M989.359 475.316L984.233 461.411H988.007L991.556 471.924L995.104 461.411H998.878L993.724 475.316H989.359Z" fill="black"/>
<path d="M1006.12 475.652C1004.72 475.652 1003.47 475.353 1002.38 474.755C1001.29 474.157 1000.44 473.316 999.816 472.232C999.197 471.148 998.887 469.896 998.887 468.475C998.887 467.036 999.188 465.756 999.788 464.635C1000.41 463.514 1001.25 462.645 1002.32 462.028C1003.41 461.392 1004.69 461.075 1006.15 461.075C1007.52 461.075 1008.74 461.374 1009.79 461.972C1010.84 462.57 1011.65 463.392 1012.24 464.439C1012.84 465.467 1013.14 466.616 1013.14 467.887C1013.14 468.092 1013.13 468.307 1013.11 468.532C1013.11 468.756 1013.1 468.989 1013.08 469.232H1002.46C1002.54 470.316 1002.91 471.167 1003.59 471.784C1004.28 472.4 1005.12 472.708 1006.1 472.708C1006.83 472.708 1007.44 472.55 1007.93 472.232C1008.43 471.896 1008.81 471.466 1009.05 470.942H1012.72C1012.45 471.821 1012.01 472.625 1011.39 473.353C1010.79 474.063 1010.04 474.624 1009.14 475.035C1008.26 475.446 1007.25 475.652 1006.12 475.652ZM1006.15 463.99C1005.27 463.99 1004.49 464.242 1003.82 464.747C1003.14 465.233 1002.71 465.981 1002.52 466.99H1009.48C1009.42 466.074 1009.08 465.345 1008.46 464.803C1007.84 464.261 1007.07 463.99 1006.15 463.99Z" fill="black"/>
<path d="M1015.04 475.316V455.132H1018.65V475.316H1015.04Z" fill="black"/>
<path d="M1027.99 475.652C1026.58 475.652 1025.34 475.353 1024.25 474.755C1023.16 474.157 1022.3 473.316 1021.68 472.232C1021.06 471.148 1020.75 469.896 1020.75 468.475C1020.75 467.036 1021.05 465.756 1021.66 464.635C1022.28 463.514 1023.12 462.645 1024.19 462.028C1025.28 461.392 1026.56 461.075 1028.02 461.075C1029.39 461.075 1030.6 461.374 1031.65 461.972C1032.7 462.57 1033.52 463.392 1034.1 464.439C1034.7 465.467 1035.01 466.616 1035.01 467.887C1035.01 468.092 1035 468.307 1034.98 468.532C1034.98 468.756 1034.97 468.989 1034.95 469.232H1024.33C1024.41 470.316 1024.78 471.167 1025.46 471.784C1026.15 472.4 1026.99 472.708 1027.96 472.708C1028.7 472.708 1029.31 472.55 1029.79 472.232C1030.3 471.896 1030.68 471.466 1030.92 470.942H1034.58C1034.32 471.821 1033.88 472.625 1033.26 473.353C1032.66 474.063 1031.91 474.624 1031.01 475.035C1030.12 475.446 1029.12 475.652 1027.99 475.652ZM1028.02 463.99C1027.14 463.99 1026.36 464.242 1025.68 464.747C1025.01 465.233 1024.58 465.981 1024.39 466.99H1031.34C1031.29 466.074 1030.95 465.345 1030.33 464.803C1029.71 464.261 1028.94 463.99 1028.02 463.99Z" fill="black"/>
<path d="M1042.68 475.652C1041.44 475.652 1040.36 475.456 1039.42 475.063C1038.48 474.652 1037.73 474.091 1037.16 473.381C1036.6 472.671 1036.26 471.849 1036.15 470.915H1039.78C1039.9 471.456 1040.2 471.924 1040.68 472.316C1041.19 472.69 1041.84 472.877 1042.63 472.877C1043.42 472.877 1043.99 472.718 1044.35 472.4C1044.72 472.083 1044.91 471.718 1044.91 471.307C1044.91 470.709 1044.65 470.307 1044.12 470.101C1043.59 469.877 1042.86 469.662 1041.92 469.457C1041.32 469.326 1040.71 469.167 1040.09 468.98C1039.47 468.793 1038.9 468.56 1038.38 468.279C1037.87 467.98 1037.45 467.606 1037.14 467.158C1036.82 466.691 1036.66 466.121 1036.66 465.448C1036.66 464.214 1037.15 463.177 1038.12 462.336C1039.12 461.495 1040.51 461.075 1042.29 461.075C1043.94 461.075 1045.26 461.458 1046.23 462.224C1047.23 462.99 1047.82 464.046 1048.01 465.392H1044.6C1044.39 464.364 1043.61 463.85 1042.26 463.85C1041.59 463.85 1041.06 463.981 1040.68 464.242C1040.33 464.504 1040.15 464.831 1040.15 465.224C1040.15 465.635 1040.42 465.962 1040.97 466.205C1041.51 466.448 1042.23 466.672 1043.13 466.878C1044.11 467.102 1045 467.354 1045.81 467.635C1046.64 467.896 1047.29 468.298 1047.78 468.84C1048.27 469.363 1048.51 470.12 1048.51 471.111C1048.53 471.971 1048.31 472.746 1047.84 473.437C1047.37 474.129 1046.69 474.671 1045.81 475.063C1044.93 475.456 1043.89 475.652 1042.68 475.652Z" fill="black"/>
<path d="M1056.35 475.652C1055.11 475.652 1054.03 475.456 1053.09 475.063C1052.15 474.652 1051.4 474.091 1050.83 473.381C1050.27 472.671 1049.93 471.849 1049.82 470.915H1053.45C1053.57 471.456 1053.87 471.924 1054.35 472.316C1054.86 472.69 1055.51 472.877 1056.3 472.877C1057.09 472.877 1057.66 472.718 1058.02 472.4C1058.39 472.083 1058.58 471.718 1058.58 471.307C1058.58 470.709 1058.32 470.307 1057.79 470.101C1057.26 469.877 1056.53 469.662 1055.59 469.457C1054.99 469.326 1054.38 469.167 1053.76 468.98C1053.14 468.793 1052.57 468.56 1052.04 468.279C1051.54 467.98 1051.12 467.606 1050.81 467.158C1050.49 466.691 1050.33 466.121 1050.33 465.448C1050.33 464.214 1050.82 463.177 1051.79 462.336C1052.79 461.495 1054.18 461.075 1055.96 461.075C1057.61 461.075 1058.93 461.458 1059.9 462.224C1060.9 462.99 1061.49 464.046 1061.68 465.392H1058.27C1058.06 464.364 1057.28 463.85 1055.93 463.85C1055.26 463.85 1054.73 463.981 1054.35 464.242C1054 464.504 1053.82 464.831 1053.82 465.224C1053.82 465.635 1054.09 465.962 1054.64 466.205C1055.18 466.448 1055.9 466.672 1056.8 466.878C1057.78 467.102 1058.67 467.354 1059.48 467.635C1060.31 467.896 1060.96 468.298 1061.45 468.84C1061.94 469.363 1062.18 470.12 1062.18 471.111C1062.2 471.971 1061.98 472.746 1061.51 473.437C1061.04 474.129 1060.36 474.671 1059.48 475.063C1058.6 475.456 1057.56 475.652 1056.35 475.652Z" fill="black"/>
<path d="M664.893 304.792H669.955C669.691 307.218 668.997 309.389 667.872 311.305C666.747 313.221 665.156 314.741 663.1 315.866C661.043 316.974 658.477 317.527 655.4 317.527C653.15 317.527 651.103 317.105 649.257 316.262C647.429 315.418 645.855 314.223 644.537 312.676C643.219 311.111 642.199 309.239 641.479 307.06C640.775 304.862 640.424 302.419 640.424 299.729V295.906C640.424 293.217 640.775 290.782 641.479 288.603C642.199 286.405 643.228 284.524 644.563 282.96C645.917 281.396 647.543 280.191 649.441 279.348C651.34 278.504 653.476 278.082 655.849 278.082C658.749 278.082 661.201 278.627 663.205 279.717C665.209 280.807 666.765 282.318 667.872 284.252C668.997 286.168 669.691 288.392 669.955 290.923H664.893C664.646 289.13 664.189 287.592 663.521 286.309C662.854 285.008 661.904 284.006 660.674 283.303C659.443 282.6 657.835 282.248 655.849 282.248C654.144 282.248 652.641 282.573 651.34 283.224C650.057 283.874 648.976 284.797 648.097 285.992C647.235 287.188 646.585 288.62 646.146 290.29C645.706 291.96 645.486 293.814 645.486 295.854V299.729C645.486 301.61 645.68 303.377 646.066 305.029C646.471 306.682 647.077 308.132 647.886 309.38C648.694 310.628 649.723 311.612 650.971 312.333C652.219 313.036 653.695 313.388 655.4 313.388C657.562 313.388 659.285 313.045 660.568 312.359C661.852 311.674 662.818 310.689 663.469 309.406C664.137 308.123 664.611 306.585 664.893 304.792ZM681.451 276.5V317H676.547V276.5H681.451ZM694.582 288.471V317H689.678V288.471H694.582ZM689.309 280.903C689.309 280.112 689.546 279.444 690.021 278.899C690.513 278.354 691.233 278.082 692.183 278.082C693.114 278.082 693.826 278.354 694.318 278.899C694.828 279.444 695.083 280.112 695.083 280.903C695.083 281.659 694.828 282.31 694.318 282.854C693.826 283.382 693.114 283.646 692.183 283.646C691.233 283.646 690.513 283.382 690.021 282.854C689.546 282.31 689.309 281.659 689.309 280.903ZM714.252 317.527C712.266 317.527 710.464 317.193 708.847 316.525C707.247 315.84 705.867 314.882 704.707 313.651C703.564 312.421 702.686 310.962 702.07 309.274C701.455 307.587 701.147 305.741 701.147 303.737V302.63C701.147 300.31 701.49 298.244 702.176 296.434C702.861 294.605 703.793 293.059 704.971 291.793C706.148 290.527 707.484 289.569 708.979 288.919C710.473 288.269 712.02 287.943 713.619 287.943C715.658 287.943 717.416 288.295 718.893 288.998C720.387 289.701 721.608 290.686 722.558 291.951C723.507 293.199 724.21 294.676 724.667 296.381C725.124 298.068 725.353 299.914 725.353 301.918V304.106H704.048V300.125H720.475V299.756C720.404 298.49 720.141 297.26 719.684 296.064C719.244 294.869 718.541 293.885 717.574 293.111C716.607 292.338 715.289 291.951 713.619 291.951C712.512 291.951 711.492 292.188 710.561 292.663C709.629 293.12 708.829 293.806 708.161 294.72C707.493 295.634 706.975 296.75 706.605 298.068C706.236 299.387 706.052 300.907 706.052 302.63V303.737C706.052 305.091 706.236 306.365 706.605 307.561C706.992 308.738 707.546 309.775 708.267 310.672C709.005 311.568 709.893 312.271 710.93 312.781C711.984 313.291 713.18 313.546 714.516 313.546C716.238 313.546 717.697 313.194 718.893 312.491C720.088 311.788 721.134 310.848 722.03 309.67L724.983 312.017C724.368 312.948 723.586 313.836 722.637 314.68C721.688 315.523 720.519 316.209 719.13 316.736C717.759 317.264 716.133 317.527 714.252 317.527ZM735.926 294.562V317H731.048V288.471H735.662L735.926 294.562ZM734.766 301.654L732.735 301.575C732.753 299.624 733.043 297.822 733.605 296.17C734.168 294.5 734.959 293.05 735.979 291.819C736.998 290.589 738.211 289.64 739.617 288.972C741.041 288.286 742.614 287.943 744.337 287.943C745.743 287.943 747.009 288.137 748.134 288.523C749.259 288.893 750.217 289.49 751.008 290.316C751.816 291.143 752.432 292.215 752.854 293.533C753.275 294.834 753.486 296.425 753.486 298.306V317H748.582V298.253C748.582 296.759 748.362 295.563 747.923 294.667C747.483 293.753 746.842 293.094 745.998 292.689C745.154 292.268 744.117 292.057 742.887 292.057C741.674 292.057 740.566 292.312 739.564 292.821C738.58 293.331 737.728 294.034 737.007 294.931C736.304 295.827 735.75 296.855 735.346 298.016C734.959 299.158 734.766 300.371 734.766 301.654ZM772.84 288.471V292.215H757.415V288.471H772.84ZM762.636 281.536H767.514V309.934C767.514 310.9 767.663 311.63 767.962 312.122C768.261 312.614 768.647 312.939 769.122 313.098C769.597 313.256 770.106 313.335 770.651 313.335C771.056 313.335 771.478 313.3 771.917 313.229C772.374 313.142 772.717 313.071 772.945 313.019L772.972 317C772.585 317.123 772.075 317.237 771.442 317.343C770.827 317.466 770.08 317.527 769.201 317.527C768.006 317.527 766.907 317.29 765.905 316.815C764.903 316.341 764.104 315.55 763.506 314.442C762.926 313.317 762.636 311.806 762.636 309.907V281.536ZM795.173 309.433C795.173 308.729 795.015 308.079 794.698 307.481C794.399 306.866 793.775 306.312 792.826 305.82C791.895 305.311 790.488 304.871 788.607 304.502C787.025 304.168 785.593 303.772 784.31 303.315C783.044 302.858 781.963 302.305 781.066 301.654C780.188 301.004 779.511 300.239 779.036 299.36C778.562 298.481 778.324 297.453 778.324 296.275C778.324 295.15 778.57 294.087 779.062 293.085C779.572 292.083 780.284 291.195 781.198 290.422C782.13 289.648 783.246 289.042 784.547 288.603C785.848 288.163 787.298 287.943 788.897 287.943C791.183 287.943 793.134 288.348 794.751 289.156C796.368 289.965 797.607 291.046 798.469 292.399C799.33 293.735 799.761 295.221 799.761 296.855H794.883C794.883 296.064 794.646 295.3 794.171 294.562C793.714 293.806 793.037 293.182 792.141 292.689C791.262 292.197 790.181 291.951 788.897 291.951C787.544 291.951 786.445 292.162 785.602 292.584C784.775 292.988 784.169 293.507 783.782 294.14C783.413 294.772 783.229 295.44 783.229 296.144C783.229 296.671 783.316 297.146 783.492 297.567C783.686 297.972 784.02 298.35 784.494 298.701C784.969 299.035 785.637 299.352 786.498 299.65C787.359 299.949 788.458 300.248 789.794 300.547C792.132 301.074 794.057 301.707 795.568 302.445C797.08 303.184 798.205 304.089 798.943 305.161C799.682 306.233 800.051 307.534 800.051 309.063C800.051 310.312 799.787 311.454 799.26 312.491C798.75 313.528 798.003 314.425 797.019 315.181C796.052 315.919 794.892 316.499 793.538 316.921C792.202 317.325 790.699 317.527 789.029 317.527C786.516 317.527 784.389 317.079 782.648 316.183C780.908 315.286 779.59 314.126 778.693 312.702C777.797 311.278 777.349 309.775 777.349 308.193H782.253C782.323 309.529 782.71 310.593 783.413 311.384C784.116 312.157 784.978 312.711 785.997 313.045C787.017 313.361 788.027 313.52 789.029 313.52C790.365 313.52 791.481 313.344 792.378 312.992C793.292 312.641 793.986 312.157 794.461 311.542C794.936 310.927 795.173 310.224 795.173 309.433Z" fill="#141414"/>
<path d="M80 619H1360V620H80V619Z" fill="#DDDDDD"/>
</svg>
