<svg width="196" height="76" viewBox="0 0 196 76" fill="none" xmlns="http://www.w3.org/2000/svg">
<path d="M37.8794 16.8423L16.6808 42.3149H35.7596L33.6397 59.2967L54.8383 33.824H35.7596L37.8794 16.8423Z" fill="black"/>
<path d="M84.8505 34.598V42.4556H73.5317V53.2184H64.6383V21.3114H87.2283V29.1691H73.5317V34.598H84.8505Z" fill="black"/>
<path d="M99.6318 21.3114V53.2184H91.4515V21.3114H99.6318Z" fill="black"/>
<path d="M113.129 28.2166C114.397 28.2166 115.633 28.5024 116.838 29.0738C118.075 29.6135 119.089 30.312 119.882 31.1692V28.931H128.062V53.2184H119.882V49.1703C119.28 50.5037 118.36 51.6307 117.124 52.5515C115.887 53.4723 114.397 53.9329 112.653 53.9329C110.846 53.9329 109.149 53.4723 107.564 52.5515C105.979 51.6307 104.679 50.2181 103.665 48.313C102.682 46.3767 102.19 43.9481 102.19 41.027C102.19 38.2967 102.682 35.9791 103.665 34.0742C104.679 32.1693 106.011 30.7247 107.659 29.7405C109.34 28.7246 111.163 28.2166 113.129 28.2166ZM114.841 36.2172C113.668 36.2172 112.685 36.6934 111.892 37.6459C111.131 38.5983 110.751 39.7253 110.751 41.027C110.751 42.3287 111.147 43.424 111.94 44.313C112.733 45.2021 113.779 45.6464 115.079 45.6464C115.776 45.6464 116.489 45.4718 117.219 45.1227C117.948 44.7415 118.566 44.1861 119.073 43.4557C119.613 42.6936 119.882 41.7255 119.882 40.5508V38.2173C119.185 37.6458 118.392 37.1696 117.504 36.7886C116.648 36.4076 115.76 36.2172 114.841 36.2172Z" fill="black"/>
<path d="M140.751 28.2166C142.336 28.2166 143.794 28.4547 145.126 28.931C146.489 29.3754 147.583 29.9945 148.407 30.7882V37.2173C147.583 36.7093 146.648 36.2331 145.602 35.7886C144.555 35.3124 143.43 35.0742 142.225 35.0742C141.464 35.0742 140.782 35.233 140.18 35.5505C139.609 35.8362 139.324 36.2965 139.324 36.9315C139.324 37.376 139.498 37.7093 139.847 37.9316C140.196 38.1538 140.877 38.3919 141.892 38.6459L143.366 39.0269C147.583 40.1063 149.691 42.3763 149.691 45.8368C149.691 47.4244 149.216 48.8371 148.265 50.0752C147.345 51.2816 146.125 52.2341 144.603 52.9328C143.113 53.5992 141.496 53.9329 139.752 53.9329C137.945 53.9329 136.264 53.6786 134.711 53.1708C133.157 52.6308 131.825 51.9803 130.716 51.2182V44.8367C131.857 45.5353 133.141 46.1224 134.568 46.5989C136.027 47.0749 137.326 47.3134 138.468 47.3134C139.387 47.3134 140.053 47.2019 140.465 46.9797C140.909 46.7575 141.131 46.3608 141.131 45.7892C141.131 45.3449 140.877 45.0112 140.37 44.7891C139.863 44.5352 139.134 44.2496 138.183 43.9322L135.757 43.1701C133.981 42.6302 132.682 41.7892 131.857 40.646C131.033 39.4714 130.621 38.0427 130.621 36.36C130.621 34.6774 131.064 33.2329 131.952 32.0264C132.84 30.82 134.045 29.8834 135.567 29.2167C137.12 28.55 138.848 28.2166 140.751 28.2166Z" fill="black"/>
<path d="M166.565 28.2166C169.038 28.2166 171.052 29.0579 172.605 30.7406C174.19 32.4233 174.983 34.9155 174.983 38.2173V53.2184H166.803L166.756 39.5031C166.756 38.2967 166.422 37.4554 165.757 36.9791C165.091 36.4712 164.346 36.2172 163.522 36.2172C162.634 36.2172 161.888 36.4553 161.286 36.9315C160.684 37.376 160.161 37.9157 159.717 38.5507V53.2184H151.537V21.3114H159.717V32.074C160.478 31.0263 161.397 30.1215 162.475 29.3596C163.585 28.5976 164.948 28.2166 166.565 28.2166Z" fill="black"/>
<path d="M174.571 21.4972V22.5104H173.353V25.5932H172.197V22.5104H170.979V21.4972H174.571Z" fill="black"/>
<path d="M179.319 21.4358V25.6116H178.163V23.5851L177.316 24.5369H176.969L176.122 23.5851V25.6116H174.966V21.4358H175.374L177.143 23.2166L178.911 21.4358H179.319Z" fill="black"/>
</svg>
