<svg width="196" height="67" viewBox="0 0 196 67" fill="none" xmlns="http://www.w3.org/2000/svg">
<path d="M59.6311 45.7987L61.5058 45.3283V25.2672L59.6311 24.797V24.3268H68.0666C71.2324 24.3268 73.5549 24.8388 75.0336 25.8628C76.5334 26.8658 77.283 28.1823 77.283 29.8124C77.283 30.9407 76.96 31.8497 76.3145 32.5394C75.669 33.2291 74.8463 33.741 73.8463 34.0755C72.7842 34.4514 71.6386 34.65 70.4097 34.6709V34.8275C71.9302 34.8902 73.2528 35.1202 74.3777 35.5173C75.523 35.8934 76.4706 36.4785 77.2205 37.2726C77.9912 38.0667 78.3766 39.0802 78.3766 40.3131C78.3766 42.1729 77.6163 43.6359 76.0957 44.7015C74.5754 45.7462 72.1072 46.2689 68.6913 46.2689H59.6311V45.7987ZM68.0666 34.3574C68.7541 34.3574 69.3892 34.1694 69.9723 33.7932C70.5765 33.3962 71.0555 32.8529 71.4096 32.1632C71.7845 31.4526 71.9719 30.6692 71.9719 29.8124C71.9719 28.8928 71.7845 28.0779 71.4096 27.3674C71.0555 26.6568 70.5765 26.1031 69.9723 25.706C69.3892 25.309 68.7541 25.1105 68.0666 25.1105H66.6608V34.3574H68.0666ZM68.6913 45.4852C69.9827 45.4852 71.0347 45.0255 71.847 44.106C72.6593 43.1866 73.0652 41.9223 73.0652 40.3131C73.0652 38.704 72.6593 37.4397 71.847 36.5202C71.0347 35.6008 69.9827 35.1411 68.6913 35.1411H66.6608V45.4852H68.6913Z" fill="black"/>
<path d="M78.9915 45.7987L80.8662 45.3283V25.2672L78.9915 24.797V24.3268H83.0531C84.9275 24.3268 85.8648 25.2672 85.8648 27.1479V45.3283L87.7395 45.7987V46.2689H78.9915V45.7987Z" fill="black"/>
<path d="M96.3262 46.739C93.7435 46.739 91.7127 46.0075 90.234 44.5449C88.7759 43.061 88.0471 41.0237 88.0471 38.4325C88.0471 35.8412 88.7759 33.8141 90.234 32.3514C91.7127 30.8676 93.7435 30.1256 96.3262 30.1256C98.9089 30.1256 100.929 30.8676 102.387 32.3514C103.866 33.8141 104.605 35.8412 104.605 38.4325C104.605 41.0237 103.866 43.061 102.387 44.5449C100.929 46.0075 98.9089 46.739 96.3262 46.739ZM96.3262 46.112C97.1593 46.112 97.8569 45.5269 98.4195 44.3566C99.0026 43.1866 99.2942 41.2117 99.2942 38.4325C99.2942 35.653 99.0026 33.6784 98.4195 32.5081C97.8569 31.3377 97.1593 30.7527 96.3262 30.7527C95.4931 30.7527 94.7848 31.3377 94.2017 32.5081C93.6392 33.6784 93.3582 35.653 93.3582 38.4325C93.3582 41.2117 93.6392 43.1866 94.2017 44.3566C94.7848 45.5269 95.4931 46.112 96.3262 46.112Z" fill="black"/>
<path d="M112.895 46.739C111.604 46.739 110.448 46.4568 109.428 45.8927C108.928 45.6209 108.522 45.3286 108.209 45.015C107.876 45.4747 107.511 45.83 107.116 46.0806C106.928 46.2062 106.72 46.3211 106.491 46.4255H105.71V41.0968H106.959C107.23 41.9745 107.626 42.7895 108.147 43.5416C109.251 45.1508 110.625 45.9553 112.271 45.9553C113.145 45.9553 113.801 45.7462 114.239 45.3283C114.697 44.8894 114.926 44.2626 114.926 43.4476C114.926 42.7582 114.614 42.1833 113.989 41.7236C113.385 41.243 112.427 40.658 111.115 39.9683C109.99 39.4041 109.073 38.9026 108.365 38.4638C107.678 38.0041 107.085 37.4397 106.584 36.7711C106.105 36.0814 105.866 35.2768 105.866 34.3574C105.866 33.1035 106.397 32.0901 107.459 31.3168C108.542 30.5227 110.198 30.1256 112.427 30.1256C113.531 30.1256 114.551 30.4183 115.489 31.0033C115.947 31.2751 116.342 31.5573 116.676 31.8497C116.946 31.4738 117.311 31.1185 117.769 30.784C118.123 30.5749 118.332 30.4601 118.394 30.4392H119.175V35.7679H117.926C117.613 34.8693 117.228 34.065 116.769 33.3544C115.728 31.7244 114.489 30.9093 113.052 30.9093C112.489 30.9093 112.01 31.1185 111.614 31.5364C111.219 31.9544 111.021 32.4767 111.021 33.1035C111.021 33.8977 111.354 34.5665 112.021 35.1097C112.687 35.6321 113.697 36.2383 115.051 36.9277C116.155 37.4919 117.03 37.9936 117.675 38.4325C118.342 38.8504 118.904 39.3728 119.363 39.9996C119.842 40.6267 120.081 41.3579 120.081 42.1938C120.081 45.2238 117.686 46.739 112.895 46.739Z" fill="black"/>
<path d="M128.205 46.739C126.914 46.739 125.758 46.4568 124.738 45.8927C124.237 45.6209 123.832 45.3286 123.519 45.015C123.186 45.4747 122.821 45.83 122.425 46.0806C122.238 46.2062 122.03 46.3211 121.801 46.4255H121.02V41.0968H122.269C122.54 41.9745 122.936 42.7895 123.457 43.5416C124.56 45.1508 125.935 45.9553 127.58 45.9553C128.455 45.9553 129.111 45.7462 129.549 45.3283C130.007 44.8894 130.236 44.2626 130.236 43.4476C130.236 42.7582 129.924 42.1833 129.299 41.7236C128.695 41.243 127.737 40.658 126.425 39.9683C125.3 39.4041 124.383 38.9026 123.675 38.4638C122.988 38.0041 122.394 37.4397 121.894 36.7711C121.415 36.0814 121.176 35.2768 121.176 34.3574C121.176 33.1035 121.707 32.0901 122.769 31.3168C123.852 30.5227 125.508 30.1256 127.737 30.1256C128.841 30.1256 129.861 30.4183 130.798 31.0033C131.257 31.2751 131.652 31.5573 131.985 31.8497C132.256 31.4738 132.621 31.1185 133.079 30.784C133.433 30.5749 133.641 30.4601 133.704 30.4392H134.485V35.7679H133.235C132.923 34.8693 132.538 34.065 132.079 33.3544C131.038 31.7244 129.799 30.9093 128.361 30.9093C127.799 30.9093 127.32 31.1185 126.924 31.5364C126.529 31.9544 126.331 32.4767 126.331 33.1035C126.331 33.8977 126.664 34.5665 127.331 35.1097C127.997 35.6321 129.007 36.2383 130.361 36.9277C131.465 37.4919 132.34 37.9936 132.985 38.4325C133.652 38.8504 134.214 39.3728 134.673 39.9996C135.152 40.6267 135.391 41.3579 135.391 42.1938C135.391 45.2238 132.996 46.739 128.205 46.739Z" fill="black"/>
<path d="M144.452 46.739C141.87 46.739 139.839 46.0075 138.36 44.5449C136.902 43.061 136.173 41.0237 136.173 38.4325C136.173 35.8412 136.902 33.8141 138.36 32.3514C139.839 30.8676 141.87 30.1256 144.452 30.1256C147.035 30.1256 149.055 30.8676 150.513 32.3514C151.992 33.8141 152.732 35.8412 152.732 38.4325C152.732 41.0237 151.992 43.061 150.513 44.5449C149.055 46.0075 147.035 46.739 144.452 46.739ZM144.452 46.112C145.285 46.112 145.983 45.5269 146.546 44.3566C147.129 43.1866 147.42 41.2117 147.42 38.4325C147.42 35.653 147.129 33.6784 146.546 32.5081C145.983 31.3377 145.285 30.7527 144.452 30.7527C143.619 30.7527 142.911 31.3377 142.328 32.5081C141.766 33.6784 141.485 35.653 141.485 38.4325C141.485 41.2117 141.766 43.1866 142.328 44.3566C142.911 45.5269 143.619 46.112 144.452 46.112Z" fill="black"/>
<path d="M153.68 45.7987L155.554 45.3283V31.5364L153.68 31.0663V30.5961H156.492C157.72 30.5961 158.689 30.9929 159.397 31.787C159.668 32.1005 159.897 32.4872 160.085 32.9469C160.397 32.3619 160.73 31.8914 161.084 31.5364C162.021 30.5961 163.094 30.1256 164.302 30.1256C165.51 30.1256 166.573 30.3974 167.489 30.9407C168.405 31.4633 169.113 32.1841 169.613 33.1035C169.926 32.4976 170.259 32.0066 170.613 31.6304C171.571 30.6274 172.644 30.1256 173.831 30.1256C174.935 30.1256 175.924 30.3556 176.799 30.8154C177.695 31.2751 178.382 31.9022 178.861 32.696C179.361 33.4901 179.611 34.3574 179.611 35.2977V45.3283L181.485 45.7987V46.2689H177.424C175.549 46.2689 174.612 45.3283 174.612 43.4476V35.2977C174.612 33.9394 174.404 32.926 173.987 32.2572C173.571 31.5677 173.102 31.2229 172.581 31.2229C171.977 31.2229 171.363 31.6408 170.738 32.4767C170.488 32.8738 170.269 33.2918 170.082 33.7306V45.3283L171.956 45.7987V46.2689H163.209V45.7987L165.083 45.3283V35.2977C165.083 33.9394 164.875 32.926 164.458 32.2572C164.042 31.5677 163.573 31.2229 163.052 31.2229C162.448 31.2229 161.834 31.6408 161.209 32.4767C160.959 32.8738 160.741 33.2918 160.553 33.7306V45.3283L162.428 45.7987V46.2689H153.68V45.7987Z" fill="black"/>
<path fill-rule="evenodd" clip-rule="evenodd" d="M34.2014 52.2539C33.9999 52.294 33.7909 52.307 33.579 52.2911C27.0348 51.7928 20.8405 48.1661 17.3112 42.0328C13.7819 35.8998 13.7486 28.704 16.5909 22.7685C17.0035 21.9068 17.8981 21.3886 18.8482 21.4609C21.2869 21.6466 23.6771 22.2667 25.8989 23.2891C27.5753 20.0094 30.0556 17.2116 33.0789 15.1574C33.8678 14.6214 34.8998 14.6214 35.6887 15.1574C38.671 17.1837 41.1247 19.9336 42.8 23.1558C44.9375 22.2127 47.2238 21.6384 49.5547 21.4609C50.505 21.3886 51.3994 21.9068 51.8119 22.7685C54.6542 28.704 54.6209 35.8998 51.0918 42.0328C47.5623 48.1661 41.3681 51.7928 34.8238 52.2911C34.6119 52.307 34.4029 52.294 34.2014 52.2539ZM38.9962 48.5362C42.9191 47.1976 46.3887 44.4811 48.621 40.6017C51.5925 35.4378 51.6893 29.3997 49.3986 24.3472C47.5178 24.5303 45.6766 25.0129 43.9497 25.775C44.792 28.1003 45.2517 30.61 45.2517 33.2274C45.2517 39.1927 42.8644 44.5988 38.9962 48.5362ZM40.2742 24.4867C38.8748 21.791 36.8471 19.4746 34.3838 17.7317C31.8676 19.5119 29.8061 21.8905 28.4042 24.6604C30.6355 26.092 32.6178 27.9753 34.2014 30.2701C35.8501 27.8813 37.9306 25.9384 40.2742 24.4867ZM35.8177 33.0461C37.2513 30.5929 39.1818 28.6105 41.4083 27.1543C42.0509 29.0609 42.399 31.1034 42.399 33.2274C42.399 38.1308 40.5436 42.6001 37.4935 45.9667C38.3188 41.714 37.8196 37.1847 35.8177 33.0461ZM32.5851 33.0461C31.2163 30.7031 29.3936 28.7897 27.2931 27.3539C26.6928 29.2033 26.3685 31.1773 26.3685 33.2274C26.3685 37.8794 28.0384 42.1407 30.8142 45.4402C30.1279 41.3419 30.6656 37.0145 32.5851 33.0461ZM34.2014 47.3655C35.2725 43.9488 35.3164 40.2212 34.2014 36.6876C33.0864 40.2212 33.1306 43.9488 34.2014 47.3655ZM19.7818 40.6017C22.1156 44.6574 25.8017 47.4421 29.944 48.7099C25.9741 44.7586 23.5157 39.2812 23.5157 33.2274C23.5157 30.6631 23.9568 28.2023 24.7671 25.9171C22.9498 25.0727 20.9995 24.5414 19.0042 24.3472C16.7136 29.3997 16.8103 35.4378 19.7818 40.6017Z" fill="black"/>
</svg>
