<svg width="196" height="75" viewBox="0 0 196 75" fill="none" xmlns="http://www.w3.org/2000/svg">
<path d="M21.461 42.9234L32.3432 38.1109L38.6069 41.7202L39.8722 53.5611L32.1534 53.498L33.2922 45.2663L31.9636 44.5061L25.4469 49.572L21.461 42.9234Z" fill="black"/>
<path d="M39.3032 41.2132L48.9202 48.242L52.7163 41.4665L44.9972 38.3638V36.8441L52.7163 33.6781L48.9202 26.966L39.3032 33.9946V41.2132Z" fill="black"/>
<path d="M38.6069 33.425L39.8722 21.584L32.1534 21.7106L33.2922 29.9423L31.9636 30.7022L25.3836 25.6365L21.461 32.2219L32.3432 37.0343L38.6069 33.425Z" fill="black"/>
<path d="M78.4678 36.1535V47.247H82.6219V33.1094H76.5721V36.1535H78.4678Z" fill="black"/>
<path d="M78.3378 31.123C78.7187 31.5185 79.2985 31.7163 80.0774 31.7163C80.8566 31.7163 81.4275 31.5185 81.7908 31.123C82.172 30.7101 82.362 30.1941 82.362 29.5751C82.362 28.9387 82.172 28.4227 81.7908 28.0272C81.4275 27.6144 80.8566 27.408 80.0774 27.408C79.2985 27.408 78.7187 27.6144 78.3378 28.0272C77.9745 28.4227 77.7927 28.9387 77.7927 29.5751C77.7927 30.1941 77.9745 30.7101 78.3378 31.123Z" fill="black"/>
<path d="M64.0058 46.9372C65.1827 47.4703 66.628 47.7371 68.3414 47.7371C69.9514 47.7371 71.3358 47.4878 72.496 46.9888C73.6557 46.4902 74.5469 45.7935 75.1701 44.8994C75.8108 43.9875 76.1308 42.9298 76.1308 41.726C76.1308 40.5565 75.8284 39.5676 75.2224 38.7591C74.6335 37.9336 73.8118 37.2887 72.7555 36.8244C71.6995 36.3427 70.4794 36.0418 69.0945 35.9215L67.6406 35.7925C66.7751 35.7235 66.1519 35.4915 65.7711 35.0958C65.3902 34.7003 65.1998 34.2359 65.1998 33.7029C65.1998 33.2899 65.304 32.9117 65.5112 32.5677C65.7192 32.2064 66.0306 31.9227 66.4461 31.7163C66.8789 31.51 67.4068 31.4068 68.03 31.4068C68.6875 31.4068 69.233 31.527 69.6658 31.768C69.761 31.8189 69.8515 31.8733 69.9364 31.931L69.957 31.9454C69.9887 31.9672 70.02 31.9898 70.0505 32.0126C70.3134 32.2123 70.5227 32.4489 70.6784 32.7224C70.9031 33.1009 71.0163 33.5221 71.0163 33.9866H75.1701C75.1701 32.7482 74.8844 31.6733 74.3136 30.7618C73.7423 29.8331 72.9201 29.1193 71.8471 28.6204C70.7907 28.1045 69.5187 27.8465 68.03 27.8465C66.6104 27.8465 65.3817 28.0874 64.3429 28.5689C63.3046 29.0334 62.491 29.7041 61.9025 30.5811C61.3308 31.4583 61.0452 32.499 61.0452 33.7029C61.0452 35.371 61.6083 36.7125 62.7333 37.7274C63.8583 38.7421 65.3645 39.3268 67.2512 39.4816L68.6793 39.6106C69.8386 39.7138 70.6784 39.946 71.1978 40.307C71.7167 40.651 71.9766 41.124 71.9766 41.726C71.9766 42.0026 71.9311 42.2621 71.8398 42.5045C71.772 42.6844 71.6794 42.8548 71.5614 43.0159C71.284 43.3773 70.8774 43.6607 70.3408 43.8673C69.8043 44.0736 69.1378 44.1767 68.3414 44.1767C67.4587 44.1767 66.7404 44.0565 66.1867 43.8158C65.6325 43.5575 65.2174 43.2222 64.9399 42.8097C64.6804 42.3967 64.5509 41.9497 64.5509 41.468H60.4225C60.4225 42.6891 60.7253 43.7727 61.3308 44.7188C61.9369 45.6473 62.8285 46.3871 64.0058 46.9372Z" fill="black"/>
<path d="M91.891 47.4273C90.4542 47.4273 89.2945 47.2555 88.4119 46.9112C87.5288 46.5503 86.8799 45.9571 86.4643 45.1317C86.0663 44.2888 85.8673 43.1536 85.8673 41.726V36.1278H83.7122V33.1094H85.8673V29.2913H89.7358V33.1094H93.8904V36.1278H89.7358V41.8809C89.7358 42.5516 89.9091 43.0675 90.2552 43.4284C90.6185 43.7727 91.1293 43.9445 91.7872 43.9445H93.8904V47.4273H91.891Z" fill="black"/>
<path fill-rule="evenodd" clip-rule="evenodd" d="M98.8921 47.1179C99.8266 47.5308 100.9 47.7371 102.112 47.7371C103.306 47.7371 104.362 47.5308 105.279 47.1179C106.197 46.705 106.959 46.1288 107.564 45.3895C108.17 44.6497 108.577 43.8072 108.784 42.8612H104.968C104.795 43.2912 104.466 43.6521 103.981 43.9445C103.497 44.2372 102.873 44.3834 102.112 44.3834C101.64 44.3834 101.218 44.328 100.847 44.2168C100.564 44.1324 100.311 44.0161 100.087 43.8673C99.5671 43.5234 99.1863 43.0415 98.944 42.4226C98.8766 42.2463 98.8192 42.0618 98.7707 41.8697C98.7214 41.6751 98.6815 41.4725 98.6515 41.2617H109.044V39.8686C109.044 38.5786 108.767 37.3919 108.213 36.3085C107.659 35.2076 106.854 34.3219 105.799 33.6511C104.76 32.9632 103.479 32.6192 101.956 32.6192C100.796 32.6192 99.7571 32.8257 98.8397 33.2384C97.9404 33.6339 97.1873 34.1756 96.5812 34.8636C95.9757 35.5515 95.5082 36.3342 95.1788 37.2114C94.8674 38.0712 94.7117 38.9741 94.7117 39.9201V40.436C94.7117 41.3477 94.8674 42.2419 95.1788 43.119C95.5082 43.979 95.9757 44.7614 96.5812 45.4666C97.2044 46.1548 97.9743 46.705 98.8921 47.1179ZM98.7231 38.7107C98.7347 38.6561 98.7467 38.6023 98.76 38.5493C98.796 38.4035 98.8376 38.2637 98.8848 38.1302C98.9114 38.0541 98.9397 37.98 98.9701 37.9079C99.2296 37.2715 99.6105 36.79 100.112 36.4632C100.3 36.3411 100.503 36.2418 100.722 36.1653C101.089 36.0372 101.501 35.973 101.956 35.973C102.666 35.973 103.254 36.1365 103.721 36.4632C104.206 36.7727 104.57 37.2285 104.812 37.8304C104.832 37.879 104.85 37.9285 104.868 37.9785C104.897 38.0583 104.923 38.1401 104.948 38.224C104.985 38.3489 105.017 38.4781 105.045 38.6117C105.066 38.7101 105.083 38.8108 105.099 38.9141H98.6832C98.6952 38.8451 98.7085 38.7774 98.7231 38.7107Z" fill="black"/>
<path d="M110.758 47.247V33.1094H114.056V36.6701C114.101 36.4584 114.152 36.2553 114.209 36.0605C114.258 35.8964 114.31 35.7381 114.368 35.586C114.731 34.6229 115.276 33.9006 116.003 33.4189C116.73 32.9202 117.621 32.6709 118.678 32.6709H118.859C119.933 32.6709 120.824 32.9202 121.534 33.4189C122.261 33.9006 122.806 34.6229 123.169 35.586L123.198 35.6587L123.223 35.7252C123.239 35.6783 123.256 35.6319 123.273 35.586C123.654 34.6229 124.208 33.9006 124.935 33.4189C125.662 32.9202 126.554 32.6709 127.61 32.6709H127.792C128.864 32.6709 129.764 32.9202 130.491 33.4189C131.236 33.9006 131.799 34.6229 132.179 35.586C132.56 36.5492 132.751 37.7532 132.751 39.1978V47.247H128.596V38.9656C128.596 38.1916 128.389 37.5639 127.973 37.0824C127.575 36.6007 127.004 36.36 126.26 36.36C125.515 36.36 124.927 36.6095 124.494 37.1082C124.061 37.5897 123.845 38.2346 123.845 39.0431V47.247H119.664V38.9656C119.664 38.1916 119.457 37.5639 119.041 37.0824C118.643 36.6007 118.08 36.36 117.354 36.36C116.592 36.36 115.995 36.6095 115.562 37.1082C115.129 37.5897 114.913 38.2346 114.913 39.0431V47.247H110.758Z" fill="black"/>
<path fill-rule="evenodd" clip-rule="evenodd" d="M143.848 44.5227V47.247H147.145V38.5786C147.145 37.2715 146.885 36.2052 146.366 35.3795C145.847 34.5369 145.085 33.9091 144.081 33.4964C143.095 33.0837 141.874 32.8772 140.42 32.8772C140.105 32.8772 139.776 32.8805 139.433 32.8874C139.231 32.8915 139.023 32.8967 138.81 32.9029C138.239 32.9202 137.685 32.9459 137.149 32.9804L136.739 33.0078C136.528 33.0224 136.331 33.0367 136.145 33.0513C136.005 33.062 135.872 33.0729 135.747 33.0837V36.5665C136.283 36.532 136.88 36.4975 137.538 36.4632C137.722 36.4537 137.905 36.4447 138.086 36.4364C138.347 36.4244 138.605 36.414 138.86 36.4049C139.062 36.3976 139.262 36.3912 139.46 36.3857C140.083 36.3685 140.585 36.36 140.966 36.36C141.727 36.36 142.281 36.5405 142.628 36.9017C142.974 37.2629 143.146 37.8046 143.146 38.5271V38.5786H140.576C139.313 38.5786 138.196 38.7421 137.227 39.0688C136.257 39.3783 135.504 39.8686 134.968 40.5392C134.431 41.1929 134.163 42.0357 134.163 43.0675C134.163 44.0135 134.379 44.8304 134.812 45.5186C135.245 46.1893 135.842 46.705 136.603 47.0663C137.383 47.4273 138.283 47.608 139.304 47.608C140.291 47.608 141.121 47.4273 141.797 47.0663C142.489 46.705 143.026 46.1893 143.406 45.5186C143.473 45.4053 143.536 45.2881 143.594 45.1662C143.677 44.994 143.75 44.8129 143.815 44.6229L143.848 44.5227ZM143.146 42.0099V40.8747H140.55C139.823 40.8747 139.261 41.0553 138.863 41.4164C138.482 41.7604 138.291 42.2334 138.291 42.8352C138.291 43.1186 138.339 43.3764 138.433 43.6082C138.529 43.8409 138.672 44.0476 138.863 44.2287C139.261 44.5726 139.823 44.7443 140.55 44.7443C140.689 44.7443 140.822 44.7375 140.951 44.7243C141.057 44.7132 141.159 44.6974 141.259 44.6774C141.449 44.6391 141.629 44.5841 141.797 44.5121C142.178 44.3403 142.489 44.0565 142.731 43.6607C142.974 43.2652 143.112 42.7151 143.146 42.0099Z" fill="black"/>
<path d="M149.631 47.247V33.1094H152.929V37.7758C153.087 36.4437 153.485 35.3696 154.123 34.5541C154.989 33.4706 156.235 32.9289 157.862 32.9289H158.407V36.489H157.369C156.227 36.489 155.344 36.7985 154.72 37.4177C154.097 38.0196 153.785 38.8968 153.785 40.0491V47.247H149.631Z" fill="black"/>
<path d="M163.675 40.6425H165.052L169.543 47.247H174.217L168.521 39.1359L173.204 33.1094H168.843L163.675 39.8316V28.4142H159.521V47.247H163.675V40.6425Z" fill="black"/>
</svg>
