<svg width="196" height="88" viewBox="0 0 196 88" fill="none" xmlns="http://www.w3.org/2000/svg">
<path d="M107.2 54.2855V30.529H111.526V54.2855H107.2Z" fill="black"/>
<path d="M70.582 31.1861L79.729 54.2855H83.2952L92.5416 31.1861H87.7535L81.5661 47.4042L75.4361 31.1861H70.582Z" fill="black"/>
<path fill-rule="evenodd" clip-rule="evenodd" d="M93.1875 53.5297C94.4863 54.2527 95.9396 54.6142 97.5468 54.6142C99.1535 54.6142 100.596 54.2527 101.873 53.5297C103.172 52.7852 104.195 51.7882 104.944 50.5396C105.692 49.2691 106.067 47.8563 106.067 46.301C106.067 44.7457 105.692 43.3547 104.944 42.128C104.195 40.8794 103.172 39.8936 101.873 39.1707C100.596 38.4259 99.1425 38.0535 97.5138 38.0535C95.9286 38.0535 94.4863 38.4259 93.1875 39.1707C91.8886 39.8936 90.8651 40.8794 90.1165 42.128C89.3679 43.3547 88.994 44.7457 88.994 46.301C88.994 47.8563 89.3679 49.2691 90.1165 50.5396C90.8871 51.7882 91.9106 52.7852 93.1875 53.5297ZM99.6603 50.0796C99.0436 50.4302 98.3279 50.6057 97.5138 50.6057C96.7212 50.6057 96.0166 50.4302 95.4004 50.0796C94.7837 49.7071 94.2994 49.2034 93.9471 48.5684C93.5948 47.911 93.4188 47.1663 93.4188 46.3339C93.4188 45.5015 93.5948 44.7676 93.9471 44.1324C94.2994 43.4971 94.7837 43.0042 95.4004 42.6537C96.0166 42.2813 96.7212 42.0951 97.5138 42.0951C98.3279 42.0951 99.0436 42.2813 99.6603 42.6537C100.276 43.0042 100.761 43.4971 101.113 44.1324C101.465 44.7676 101.641 45.5015 101.641 46.3339C101.641 47.1663 101.465 47.911 101.113 48.5684C100.783 49.2034 100.298 49.7071 99.6603 50.0796Z" fill="black"/>
<path d="M116.746 53.7271C117.847 54.3184 119.102 54.6142 120.511 54.6142C121.92 54.6142 123.164 54.3293 124.242 53.7599C125.343 53.1687 126.191 52.3472 126.785 51.2954C127.401 50.2442 127.709 49.0174 127.709 47.6151V38.415H123.383V47.5168C123.383 48.5028 123.131 49.2691 122.624 49.817C122.118 50.3645 121.413 50.6385 120.511 50.6385C119.916 50.6385 119.399 50.5177 118.959 50.277C118.518 50.0359 118.188 49.6853 117.968 49.2253C117.748 48.7434 117.638 48.1741 117.638 47.5168V38.415H113.279V47.6151C113.279 48.9956 113.587 50.2114 114.203 51.2626C114.82 52.3143 115.667 53.1354 116.746 53.7271Z" fill="black"/>
<path d="M129.503 54.2855V38.415H133.829V39.7919C134.216 39.416 134.656 39.0994 135.15 38.8421C136.075 38.3383 137.121 38.0864 138.287 38.0864C139.388 38.0864 140.39 38.3383 141.292 38.8421C142.049 39.246 142.674 39.796 143.167 40.4922C143.701 39.8147 144.353 39.2756 145.123 38.875C146.092 38.3493 147.17 38.0864 148.359 38.0864C149.548 38.0864 150.616 38.3383 151.562 38.8421C152.509 39.3241 153.257 40.0251 153.808 40.9451C154.358 41.8651 154.633 42.9604 154.633 44.2309V54.2855H150.308V44.9209C150.308 44.0009 150.01 43.289 149.416 42.7852C148.843 42.2594 148.128 41.9965 147.269 41.9965C146.719 41.9965 146.202 42.117 145.717 42.358C145.255 42.5771 144.892 42.9057 144.627 43.3438C144.364 43.7818 144.231 44.3076 144.231 44.9209V54.2855H139.905V44.9209C139.905 44.0009 139.608 43.289 139.014 42.7852C138.442 42.2594 137.726 41.9965 136.867 41.9965C136.295 41.9965 135.777 42.117 135.315 42.358C134.853 42.5771 134.489 42.9057 134.226 43.3438C133.961 43.7818 133.829 44.3076 133.829 44.9209V54.2855H129.503Z" fill="black"/>
<path fill-rule="evenodd" clip-rule="evenodd" d="M159.659 53.5625C160.958 54.2636 162.444 54.6142 164.117 54.6142C165.416 54.6142 166.616 54.384 167.716 53.924C168.839 53.464 169.786 52.7852 170.556 51.8872L168.014 49.3571C167.529 49.9046 166.957 50.3208 166.296 50.6057C165.636 50.8683 164.899 50.9996 164.084 50.9996C163.181 50.9996 162.389 50.8136 161.706 50.4411C161.024 50.0468 160.495 49.4993 160.121 48.7981C159.98 48.5094 159.868 48.2012 159.784 47.8739L171.448 47.8454C171.536 47.4729 171.591 47.1444 171.613 46.8596C171.657 46.5529 171.679 46.2572 171.679 45.9724C171.679 44.4609 171.338 43.1138 170.655 41.9309C169.995 40.726 169.07 39.7841 167.882 39.105C166.715 38.404 165.361 38.0535 163.82 38.0535C162.256 38.0535 160.837 38.4259 159.56 39.1707C158.283 39.8936 157.27 40.8794 156.522 42.128C155.795 43.3547 155.432 44.7567 155.432 46.3339C155.432 47.9329 155.806 49.3571 156.555 50.6057C157.325 51.8539 158.36 52.8399 159.659 53.5625ZM159.787 44.6531C159.864 44.3626 159.965 44.0904 160.088 43.8366C160.44 43.1356 160.936 42.5989 161.574 42.2266C162.212 41.8322 162.961 41.6351 163.82 41.6351C164.634 41.6351 165.317 41.8104 165.867 42.1608C166.439 42.4894 166.869 42.9713 167.155 43.6066C167.303 43.9125 167.421 44.2539 167.508 44.6308L159.787 44.6531Z" fill="black"/>
<path fill-rule="evenodd" clip-rule="evenodd" d="M43.9952 63.8285C55.0923 63.8285 64.0877 54.8773 64.0877 43.8353C64.0877 32.7935 55.0923 23.8423 43.9952 23.8423C32.8983 23.8423 23.9025 32.7935 23.9025 43.8353C23.9025 54.8773 32.8983 63.8285 43.9952 63.8285ZM52.3167 31.598C52.5553 31.7987 52.6925 32.0937 52.6925 32.4044L52.692 36.4212L52.6925 36.6855L52.692 36.7171V50.1633C52.692 52.4984 50.7894 54.3911 48.4426 54.3911C46.0958 54.3911 44.1934 52.4984 44.1934 50.1633C44.1934 47.8278 46.0958 45.9348 48.4426 45.9348C49.2166 45.9348 49.9423 46.1408 50.5671 46.5005V37.9333L39.9437 39.6955V52.2772C39.9437 54.6123 38.0413 56.5055 35.6945 56.5055C33.3477 56.5055 31.4453 54.6123 31.4453 52.2772C31.4453 49.9421 33.3477 48.0489 35.6945 48.0489C36.4685 48.0489 37.1945 48.2549 37.8191 48.6145L37.8196 38.7996L37.8191 38.5353L37.8196 38.5037V34.5185C37.8196 34.002 38.1949 33.5609 38.7075 33.4759L51.4553 31.3618C51.7631 31.3107 52.0782 31.3972 52.3167 31.598Z" fill="black"/>
</svg>
