<svg width="196" height="77" viewBox="0 0 196 77" fill="none" xmlns="http://www.w3.org/2000/svg">
<path fill-rule="evenodd" clip-rule="evenodd" d="M27.4544 30.0659C30.012 26.6415 34.1077 24.423 38.7239 24.423C43.3672 24.423 47.4837 26.6677 50.0382 30.1264C49.9296 30.2377 49.8305 30.3531 49.741 30.4682C49.2729 31.0714 48.9209 31.8483 48.6389 32.6373C48.0708 34.224 47.6376 36.2967 47.2364 38.2376L47.2008 38.4121C46.8005 40.3493 46.4285 42.1511 45.9787 43.4886C45.7766 44.0894 45.585 44.5142 45.4151 44.7863C45.2378 44.5121 45.0365 44.0821 44.8236 43.4726C44.3425 42.0967 43.9379 40.2252 43.509 38.227L43.495 38.1615V38.1615C43.0829 36.2421 42.6456 34.2056 42.1005 32.6467C41.8266 31.8637 41.4905 31.0945 41.051 30.497C40.6197 29.9105 39.9016 29.2487 38.8515 29.2487C37.8079 29.2487 37.0866 29.9033 36.649 30.4832C36.201 31.0769 35.8517 31.8429 35.564 32.6263C34.9845 34.204 34.5108 36.2677 34.0699 38.2112L34.0243 38.4121C33.5877 40.3373 33.1796 42.1373 32.7163 43.4773C32.5395 43.9891 32.3726 44.3784 32.2215 44.6565C32.0739 44.3797 31.9112 43.993 31.7391 43.4855C31.2947 42.174 30.9053 40.4245 30.4872 38.5453L30.414 38.2165C29.9807 36.2718 29.5106 34.2043 28.9229 32.6217C28.6309 31.8353 28.2738 31.0655 27.8116 30.469C27.707 30.334 27.588 30.197 27.4544 30.0659ZM25.9064 32.6953C26.0282 32.9347 26.1571 33.2315 26.2903 33.5903C26.799 34.9602 27.23 36.8294 27.6738 38.8214L27.7602 39.2095C28.1642 41.0271 28.5846 42.9177 29.0797 44.3784C29.343 45.1553 29.661 45.9162 30.07 46.5076C30.4567 47.0669 31.1505 47.7893 32.2174 47.7893C33.2812 47.7893 33.9767 47.0704 34.3661 46.5136C34.7785 45.9236 35.1017 45.1635 35.3704 44.3862C35.8854 42.8966 36.3238 40.9616 36.7435 39.1098V39.1096L36.8077 38.8266C37.2598 36.8334 37.6951 34.9605 38.2 33.5856C38.434 32.9486 38.653 32.5049 38.8437 32.2296C39.0244 32.5025 39.2309 32.9392 39.4498 33.5653C39.931 34.9412 40.3352 36.8126 40.7643 38.8109L40.7783 38.8763C41.1904 40.7957 41.6276 42.8322 42.1728 44.3909C42.4466 45.1743 42.7827 45.9435 43.2222 46.5409C43.6537 47.1275 44.3716 47.7893 45.4216 47.7893C46.4772 47.7893 47.1925 47.1214 47.6189 46.5296C48.0517 45.9292 48.3772 45.1575 48.6402 44.3754C49.1456 42.8731 49.5476 40.9239 49.9305 39.0696V39.0695L49.9856 38.8003C50.3981 36.8045 50.794 34.9404 51.2829 33.5747C51.3889 33.2776 51.4932 33.0243 51.5928 32.8115C52.342 34.5207 52.7575 36.408 52.7575 38.3919C52.7575 46.1066 46.4746 52.3609 38.7239 52.3609C30.9733 52.3609 24.6903 46.1066 24.6903 38.3919C24.6903 36.3629 25.1248 34.435 25.9064 32.6953ZM38.7239 21.6292C29.4232 21.6292 21.8835 29.1341 21.8835 38.3919C21.8835 47.6496 29.4232 55.1545 38.7239 55.1545C48.0248 55.1545 55.564 47.6496 55.564 38.3919C55.564 29.1341 48.0248 21.6292 38.7239 21.6292ZM39.0447 31.9957C39.0447 31.9961 39.0415 31.9987 39.0349 32.0025C39.0414 31.9973 39.0447 31.9954 39.0447 31.9957ZM38.6568 31.9977C38.6503 31.9937 38.6471 31.9909 38.6471 31.9906C38.6471 31.9903 38.6503 31.9922 38.6568 31.9977ZM45.2082 45.0515C45.2082 45.0515 45.2112 45.0485 45.2173 45.0446C45.2112 45.0498 45.2082 45.0519 45.2082 45.0515ZM45.6163 45.0402C45.6228 45.0441 45.6263 45.0467 45.6263 45.0472C45.6263 45.0476 45.6228 45.0454 45.6163 45.0402ZM31.9298 45.0766C31.9297 45.0761 31.9338 45.0723 31.9419 45.0666C31.9339 45.074 31.9298 45.077 31.9298 45.0766ZM32.4982 45.0692C32.5062 45.0748 32.5102 45.0787 32.5102 45.0792C32.5102 45.0796 32.5061 45.077 32.4982 45.0692Z" fill="black"/>
<path d="M64.863 48.3158L60.7791 34.4112H64.3562L66.7782 44.4191L69.5943 34.4112H73.5934L76.41 44.4191L78.8602 34.4112H82.4369L78.3252 48.3158H74.5795L71.5939 37.9154L68.6087 48.3158H64.863Z" fill="black"/>
<path d="M87.6854 48.6523C86.4838 48.6523 85.4982 48.465 84.7285 48.0912C83.9588 47.6989 83.386 47.185 83.0106 46.5495C82.6351 45.914 82.4473 45.2132 82.4473 44.4471C82.4473 43.1576 82.9541 42.111 83.968 41.3074C84.9819 40.5037 86.5029 40.1019 88.5307 40.1019H92.0791V39.7655C92.0791 38.8124 91.8067 38.1116 91.2625 37.663C90.718 37.2145 90.0418 36.9902 89.2347 36.9902C88.5025 36.9902 87.8641 37.1677 87.3195 37.5229C86.775 37.8593 86.4369 38.3638 86.3056 39.0366H82.785C82.8793 38.0275 83.217 37.1491 83.7989 36.4015C84.3999 35.654 85.1696 35.0839 86.1083 34.6915C87.0475 34.2803 88.0987 34.0748 89.2626 34.0748C91.253 34.0748 92.8206 34.57 93.9661 35.5605C95.1113 36.551 95.6841 37.9527 95.6841 39.7655V48.3157H92.6141L92.2764 46.0732C91.8632 46.8207 91.2812 47.4372 90.5303 47.9234C89.798 48.4092 88.8497 48.6523 87.6854 48.6523ZM88.5025 45.8487C89.5351 45.8487 90.333 45.5122 90.8962 44.8395C91.4781 44.1668 91.8445 43.335 91.9948 42.3446H88.9249C87.9671 42.3446 87.2821 42.5221 86.8688 42.8772C86.456 43.2136 86.2491 43.6343 86.2491 44.1387C86.2491 44.6807 86.456 45.1012 86.8688 45.4001C87.2821 45.699 87.8262 45.8487 88.5025 45.8487Z" fill="black"/>
<path d="M101.359 48.3158L96.2334 34.4112H100.007L103.556 44.9239L107.104 34.4112H110.878L105.724 48.3158H101.359Z" fill="black"/>
<path d="M118.125 48.6523C116.717 48.6523 115.468 48.3529 114.379 47.7551C113.291 47.1568 112.436 46.3159 111.816 45.2318C111.197 44.1482 110.887 42.8959 110.887 41.4755C110.887 40.0365 111.188 38.7563 111.788 37.635C112.408 36.5136 113.253 35.6446 114.323 35.0279C115.412 34.3925 116.689 34.0748 118.153 34.0748C119.524 34.0748 120.735 34.3738 121.786 34.9718C122.838 35.5699 123.655 36.3922 124.237 37.4388C124.837 38.4666 125.138 39.616 125.138 40.8868C125.138 41.0925 125.128 41.3074 125.11 41.5316C125.11 41.7559 125.1 41.9895 125.081 42.2324H114.464C114.539 43.3164 114.915 44.1668 115.59 44.7837C116.285 45.4001 117.121 45.7086 118.097 45.7086C118.829 45.7086 119.44 45.5498 119.928 45.2318C120.434 44.8957 120.81 44.4657 121.054 43.9423H124.716C124.453 44.8209 124.011 45.6246 123.392 46.3535C122.791 47.0634 122.04 47.624 121.138 48.0354C120.256 48.4464 119.251 48.6523 118.125 48.6523ZM118.153 36.9902C117.271 36.9902 116.492 37.2425 115.816 37.7471C115.14 38.233 114.708 38.9806 114.52 39.9898H121.477C121.42 39.074 121.082 38.3452 120.463 37.8032C119.843 37.2612 119.073 36.9902 118.153 36.9902Z" fill="black"/>
<path d="M127.043 48.3158V28.1317H130.648V48.3158H127.043Z" fill="black"/>
<path d="M139.992 48.6523C138.584 48.6523 137.336 48.3529 136.247 47.7551C135.158 47.1568 134.303 46.3159 133.684 45.2318C133.064 44.1482 132.755 42.8959 132.755 41.4755C132.755 40.0365 133.055 38.7563 133.655 37.635C134.275 36.5136 135.12 35.6446 136.19 35.0279C137.28 34.3925 138.556 34.0748 140.02 34.0748C141.391 34.0748 142.602 34.3738 143.654 34.9718C144.705 35.5699 145.522 36.3922 146.104 37.4388C146.704 38.4666 147.005 39.616 147.005 40.8868C147.005 41.0925 146.996 41.3074 146.977 41.5316C146.977 41.7559 146.967 41.9895 146.949 42.2324H136.331C136.406 43.3164 136.782 44.1668 137.458 44.7837C138.152 45.4001 138.988 45.7086 139.964 45.7086C140.696 45.7086 141.307 45.5498 141.795 45.2318C142.302 44.8957 142.677 44.4657 142.921 43.9423H146.583C146.32 44.8209 145.878 45.6246 145.259 46.3535C144.658 47.0634 143.907 47.624 143.006 48.0354C142.123 48.4464 141.119 48.6523 139.992 48.6523ZM140.02 36.9902C139.138 36.9902 138.359 37.2425 137.683 37.7471C137.007 38.233 136.575 38.9806 136.387 39.9898H143.344C143.287 39.074 142.95 38.3452 142.33 37.8032C141.71 37.2612 140.941 36.9902 140.02 36.9902Z" fill="black"/>
<path d="M154.684 48.6523C153.445 48.6523 152.356 48.4559 151.417 48.0635C150.478 47.6522 149.727 47.0915 149.164 46.3812C148.601 45.6714 148.263 44.849 148.15 43.9146H151.783C151.896 44.4562 152.196 44.9239 152.684 45.3162C153.191 45.69 153.839 45.8768 154.627 45.8768C155.416 45.8768 155.989 45.7181 156.345 45.4001C156.721 45.0826 156.909 44.7179 156.909 44.307C156.909 43.7087 156.646 43.3068 156.12 43.1015C155.594 42.8772 154.862 42.6623 153.923 42.4567C153.323 42.3259 152.713 42.167 152.093 41.9802C151.473 41.7933 150.901 41.5596 150.375 41.2793C149.868 40.9803 149.455 40.6065 149.136 40.158C148.817 39.6907 148.657 39.1207 148.657 38.4479C148.657 37.2145 149.145 36.1773 150.122 35.3363C151.116 34.4952 152.506 34.0748 154.29 34.0748C155.942 34.0748 157.256 34.4579 158.232 35.2241C159.228 35.9904 159.819 37.0463 160.007 38.3919H156.599C156.392 37.364 155.613 36.8501 154.262 36.8501C153.586 36.8501 153.06 36.9809 152.684 37.2425C152.328 37.5042 152.149 37.8312 152.149 38.2237C152.149 38.6349 152.421 38.9619 152.966 39.2049C153.511 39.4478 154.233 39.6721 155.135 39.8777C156.111 40.1019 157.003 40.3542 157.81 40.6346C158.636 40.8962 159.293 41.298 159.782 41.84C160.27 42.3633 160.514 43.1202 160.514 44.1106C160.533 44.9706 160.307 45.7458 159.838 46.4375C159.368 47.1287 158.693 47.6708 157.81 48.0635C156.928 48.4559 155.886 48.6523 154.684 48.6523Z" fill="black"/>
<path d="M168.354 48.6523C167.115 48.6523 166.026 48.4559 165.087 48.0635C164.148 47.6522 163.398 47.0915 162.834 46.3812C162.271 45.6714 161.933 44.849 161.82 43.9146H165.454C165.566 44.4562 165.866 44.9239 166.354 45.3162C166.862 45.69 167.509 45.8768 168.298 45.8768C169.086 45.8768 169.659 45.7181 170.016 45.4001C170.391 45.0826 170.579 44.7179 170.579 44.307C170.579 43.7087 170.316 43.3068 169.79 43.1015C169.265 42.8772 168.533 42.6623 167.594 42.4567C166.993 42.3259 166.383 42.167 165.763 41.9802C165.144 41.7933 164.571 41.5596 164.045 41.2793C163.538 40.9803 163.125 40.6065 162.806 40.158C162.487 39.6907 162.327 39.1207 162.327 38.4479C162.327 37.2145 162.816 36.1773 163.792 35.3363C164.787 34.4952 166.176 34.0748 167.96 34.0748C169.612 34.0748 170.926 34.4579 171.903 35.2241C172.898 35.9904 173.489 37.0463 173.677 38.3919H170.269C170.063 37.364 169.284 36.8501 167.932 36.8501C167.256 36.8501 166.73 36.9809 166.354 37.2425C165.998 37.5042 165.819 37.8312 165.819 38.2237C165.819 38.6349 166.092 38.9619 166.636 39.2049C167.181 39.4478 167.903 39.6721 168.805 39.8777C169.781 40.1019 170.673 40.3542 171.48 40.6346C172.307 40.8962 172.964 41.298 173.452 41.84C173.94 42.3633 174.184 43.1202 174.184 44.1106C174.203 44.9706 173.978 45.7458 173.508 46.4375C173.038 47.1287 172.363 47.6708 171.48 48.0635C170.598 48.4559 169.556 48.6523 168.354 48.6523Z" fill="black"/>
</svg>
